<svg width="473" height="473" viewBox="0 0 473 473" fill="none" xmlns="http://www.w3.org/2000/svg">
<path d="M202.42 405.103C188.557 427.095 183.876 440.954 175.254 445.481C170.736 447.851 164.233 444.419 165.503 442.326C167.118 439.661 171.82 447.988 179.203 437.255C185.151 428.611 196.345 408.809 200.997 404.127C202.546 402.568 203.667 403.121 202.42 405.101V405.103Z" fill="#191919"/>
<path d="M316.193 160.877C320.656 157.898 325.474 155.861 331.254 155.012C329.589 154.367 327.907 153.939 326.212 153.7C322.501 155.1 319.062 156.422 315.176 158.867C315.538 159.508 315.874 160.18 316.191 160.88L316.193 160.877Z" fill="#38A1FF"/>
<path d="M338.597 194.176C337.214 193.143 336.956 192.656 344.654 187.027C347.53 184.924 350.462 182.907 353.655 181.289C353.698 180.488 353.932 179.653 353.312 178.946C327.803 192.942 342.67 196 318.528 179.773C318.402 180.672 318.265 181.602 318.126 182.583C332.808 192.719 333.512 192.764 332.145 194.117C318.296 207.844 320.065 212.616 316.931 210.797C316.432 210.507 315.704 210.109 314.812 209.643C311.823 211.162 309.042 208.96 307.568 206.044C306.168 205.379 304.752 204.724 303.411 204.128C302.517 203.182 301.592 203.047 289.866 197.504C287.487 196.378 287.589 196.688 290.405 190.7C290.824 189.791 291.392 188.718 292.08 187.523C290.964 188.216 289.717 188.786 288.528 188.959C283.166 199.24 289.18 195.039 270.764 190.879C270.331 191.501 269.861 192.112 269.702 192.88C274.458 193.895 278.971 195.652 283.504 197.364C286.543 198.514 279.824 203.948 278.531 228.263C278.42 230.356 278.439 230.316 276.353 230.011C271.481 229.294 266.656 228.171 261.687 228.272C261.455 228.968 261.926 229.604 261.862 230.287C279.47 233.097 278.228 231.971 278.552 235.859C280.255 256.543 284.42 257.333 279.794 256.208C273.018 254.562 272.474 254.202 271.102 254.45C271.424 255.59 272.228 256.333 273.165 256.969C276.296 257.376 279.254 258.478 282.298 259.239C285.153 259.954 283.826 266.339 287.917 265.452C288.005 264.303 286.539 262.186 286.735 261.001C287.362 260.457 286.891 260.701 296.845 264.045C297.437 264.244 297.921 264.535 298.321 264.991C299.603 264.811 300.894 264.677 302.048 264.005C301.072 262.714 288.873 258.913 287.31 258.502C285.834 258.114 285.013 257.307 284.557 255.86C282.523 249.411 281.364 242.81 281.023 236.065C280.903 233.754 281.033 233.707 283.275 234.235C290.739 235.982 298.059 238.224 305.312 240.7C309.55 242.15 305.168 242.093 306.395 263.915C311.118 263.158 306.547 258.736 309.564 244.059C310.085 241.526 310.139 242.337 329.605 250.234C330.814 248.734 330.996 248.15 327.72 246.696C310.016 238.853 309.964 240.882 310.796 237.425C312.596 229.942 315.403 222.847 319.041 216.071C319.594 215.038 320.079 215.106 321.02 215.631C335.021 223.483 343.476 230.912 344.838 231.058C347.352 229.545 343.294 227.653 342.003 226.688C321.697 211.516 319.776 214.782 322.051 211.06C325.221 205.871 329.146 201.266 333.271 196.837C335.208 194.76 335.416 194.824 337.604 196.565C353.478 209.201 353.565 212.221 354.211 207.368C349.339 203.267 343.713 197.986 338.602 194.176H338.597ZM308.221 236.689C307.339 240.334 308.027 237.645 283.32 231.612C281.411 231.146 280.853 231.588 280.995 228.554C281.34 221.303 282.343 214.144 284.285 207.141C286.546 198.998 286.766 198.599 288.22 199.313L301.634 205.545C306.745 208.321 313.651 211.675 315.266 212.548C319.547 214.853 313.769 213.784 308.223 236.692L308.221 236.689Z" fill="#38A1FF"/>
<path d="M359.229 160.262C361.743 160.355 403.76 196.189 412.149 265.788C414.145 282.348 416.81 301.497 411.964 322.182C406.39 345.981 390.97 344.796 384.48 339.647C376.711 333.484 371.08 322.723 358.122 314.512C345.574 306.561 330.554 303.247 310.974 293.596C306.369 291.325 286.697 279.701 283.348 275.655C293.243 277.412 285.709 275.728 294.32 280.281C305.165 286.014 304.423 286.794 307.161 286.662C318.629 286.108 328.768 283.119 332.649 281.182C327.626 278.091 322.305 275.61 317.305 273.11C318.324 272.358 319.739 271.859 320.983 271.592C321.044 272.9 323.461 272.659 334.517 279.517C336.852 280.964 347.189 273.46 349.301 271.873C355.164 267.467 355.441 266.973 354.459 266.223C350.337 263.071 346.373 259.701 341.764 257.241L343.89 255.349C357.489 263.288 355.819 266.375 358.425 263.726C361.483 260.618 364.148 257.189 366.568 253.563C367.199 252.617 367.19 251.865 366.402 251.068C362.812 247.433 359.437 243.567 355.261 240.556L356.635 238.494C369.233 248.68 367.554 252.092 370.063 247.885C372.163 244.366 373.713 240.591 375.309 236.838C376.104 234.97 376.245 234.63 364.404 221.653C364.865 221.109 364.759 220.217 365.506 219.849C367.836 220.378 375.392 232.165 377.038 231.671C381.668 219.51 382.387 204.436 381.78 191.442C381.569 186.925 367.762 172.009 364.716 168.561C364.3 168.09 363.839 167.755 363.176 167.842C361.992 165.245 360.227 162.951 359.229 160.262ZM385.334 195.548C384.076 198.169 387.051 211.337 379.734 233.641C378.899 236.184 378.982 234.218 396.478 258.863C399.527 252.899 403.124 234.521 400.016 226.508C396.286 216.892 390.629 204.393 385.332 195.546L385.334 195.548ZM339.049 281.851C340.063 283.438 346.413 286.558 357.482 295.372C358.094 295.862 358.657 295.911 359.359 295.63C364.033 293.757 368.469 291.43 372.715 288.733C373.876 287.996 373.826 287.305 373.083 286.248C368.912 280.302 364.021 274.995 358.782 269.991C356.656 267.959 358.657 270.793 339.049 281.851ZM378.641 238.546C376.763 239.191 376.865 243.496 371.865 251.102C369.657 254.465 374.188 253.507 386.245 273.895C387.001 275.172 387.03 278.074 394.539 263.991C395.804 261.619 396.187 261.763 378.641 238.546ZM355.268 296.964C351.375 293.362 341.404 286.766 337.389 284.126C334.132 281.986 329.031 287.899 312.991 288.814C308.945 289.043 305.366 288.852 335.567 300.655C339.061 302.02 352.718 297.952 355.27 296.966L355.268 296.964ZM399.903 302.706C401.795 302.857 407.892 292.224 409.493 289.06C410.964 286.158 400.683 270.376 397.559 265.318C397.24 265.604 396.987 265.734 396.885 265.94C390.693 278.552 388.208 276.932 389.61 279.694C390.833 282.102 396.064 291.221 399.903 302.703V302.706ZM369.843 255.101C368.505 255.81 366.461 260.06 360.395 266.287C358.323 268.413 363.368 268.475 375.198 285.224C376.475 287.033 377.312 285.538 384.4 278.871C385.769 277.585 386.275 277.135 377.693 265.05C375.238 261.595 372.646 258.241 369.841 255.101H369.843ZM361.568 298.205C361.715 299.544 371.161 306.147 377.364 316.629C377.908 317.546 378.696 317.61 379.568 317.255C387.746 313.94 387.366 314.178 386.353 311.475C383.813 304.685 380.711 298.163 376.86 292.014C375.186 289.339 376.607 291.387 361.568 298.205ZM389.333 312.294C392.11 310.938 394.004 308.942 396.171 307.315C397.632 306.215 398.008 304.967 397.426 303.098C394.629 294.116 388.288 281.241 387.051 280.754C384.62 283.064 382.324 285.583 379.606 287.66C375.874 290.51 379.71 287.674 389.333 312.294ZM398.772 308.696C389.979 316.281 390.109 314.33 391.046 317.582C393.408 325.793 393.65 336.665 393.564 338.512C393.451 341.007 398.817 338.862 400.825 337.415C402.341 336.32 403.067 335.08 402.878 333.124C402.256 326.718 400.69 314.247 398.772 308.699V308.696ZM345.791 304.688C368.124 314.349 367.916 319.802 370.347 319.379C371.667 319.15 376.12 319.001 375.269 317.612C371.132 310.856 365.657 305.293 359.646 300.218C358.879 299.572 358.082 299.369 357.053 299.738C345.328 303.943 339.78 302.086 345.791 304.688ZM405.063 331.866C410.335 325.852 413.21 297.791 411.517 291.541C410.751 292.054 410.538 292.919 410.148 293.648C403.507 306.005 400.212 304.044 401.605 309.794C405.631 326.405 403.637 329.409 405.063 331.866ZM410.912 283.258L411.479 283.133C409.828 268.801 408.568 254.398 404.141 240.528C399.153 272.178 393.323 251.875 410.912 283.258ZM391.93 338.573C391.251 331.23 391.251 326.67 388.645 318.026C388.066 316.104 387.623 316.967 381.434 319.608C377.615 321.24 380.905 319.975 384.788 334.288C385.637 337.419 387.962 338.5 390.601 339.363C391.377 339.616 391.956 339.349 391.93 338.573ZM381.491 332.434C381.072 330.502 378.263 320.311 376.224 321.169C372.071 322.917 369.756 319.015 381.491 332.434Z" fill="#38A1FF"/>
<path d="M310.016 152.417C309.992 152.417 309.952 152.427 309.952 152.427L309.86 152.455C310.964 153.384 311.977 154.401 312.897 155.525C318.856 153.697 325.393 152.987 331.176 155.236C350.815 161.416 364.95 189.079 346.307 225.839C337.786 242.64 324.31 255.959 310.253 261.47C268.186 277.987 244.964 229.391 276.175 181.98C276.535 181.433 276.942 180.861 277.391 180.272C276.442 179.79 275.733 179.049 275.326 178.158C269.927 185.101 265.095 193.715 261.931 204.31C245.645 258.826 291.581 288.558 330.932 251.395C376.473 208.38 358.77 137.357 310.014 152.415L310.016 152.417Z" fill="#191919"/>
<path d="M369.075 193.197C368.299 152.472 334.669 133.214 300.878 147.243C302.23 147.799 303.512 148.39 304.726 149.035C344.228 133.899 374.696 168.187 363.716 213.127C356.309 243.444 333.184 266.528 309.37 272.625C261.9 284.779 235.627 230.451 267.094 180.575C269.215 177.212 271.509 174.086 273.943 171.195C272.838 170.722 271.97 169.97 271.431 169.036C270.097 170.543 268.78 172.115 267.486 173.759C257.809 186.034 236.871 233.222 264.298 262.666C265.183 263.615 265.27 264.445 264.648 265.623C260.323 273.822 174.57 401.095 157.005 434.966C153.767 441.21 155.368 449.085 165.119 455.622C171.186 459.69 181.435 457.833 185.283 452.306C199.05 432.532 248.316 339.089 260.739 315.356C279.153 280.177 281.163 278.32 282.733 275.705C332.729 286.82 369.851 233.594 369.08 193.199L369.075 193.197ZM247.98 333.981C235.663 357.839 189.543 441.153 189.51 441.205C187.216 444.894 184.631 448.378 181.677 451.571C172.945 461.009 152.98 447.926 159.649 435.721C183.912 391.318 254.372 287.88 267.583 266.429C271.407 269.359 275.397 271.932 279.931 273.999C270.4 288.303 262.139 306.556 247.98 333.981Z" fill="#191919"/>
<path d="M230.046 248.592C238.929 232.958 212.219 215.14 211.294 237.628C211.162 240.788 212.703 244.825 211.533 242.495C211.263 241.954 211.232 241.916 210.807 241.405C206.793 236.592 207.725 233.991 207.016 233.691C206.857 233.627 206.677 233.651 206.545 233.752C204.721 235.152 206.072 238.567 207.352 240.39C208.844 242.524 209.537 243.34 209.506 243.602C207.668 243.524 199.492 239.473 199.478 242.812C199.478 244.853 202.054 242.439 209.473 246.587C206.221 246.381 198.599 245.899 195.825 251.359C191.388 260.084 204.426 271.523 217.757 263.612C219.389 271.821 228.379 274.2 229.999 266.685C230.491 264.407 229.909 262.78 229.284 260.583C231.983 260.895 237.668 261.179 238.662 256.286C239.596 251.709 234.632 249.484 230.041 248.592H230.046ZM220.38 260.824C220.423 260.157 221.255 258.764 219.933 258.1C218.957 257.603 218.216 258.284 217.523 259.117C215.34 261.739 212.786 263.624 209.435 263.501C191.253 261.803 195.803 245.998 210.393 249.174C211.239 249.359 212.029 249.725 212.862 250.115C216.237 251.695 215.146 250.567 216.163 251.847C217.228 253.187 219.439 255.983 224.37 258.4C227.092 259.739 228.39 264.289 227.293 266.895C225.38 271.457 219.938 267.34 220.383 260.819L220.38 260.824ZM218.044 248.694C217.816 248.571 217.656 248.491 217.625 248.491C215.537 244.929 213.184 241.724 213.498 237.628C213.17 231.461 218.178 227.256 223.45 230.628C228.005 233.535 229.613 238.924 229.19 242.975C228.757 247.09 227.04 248.427 225.902 249.311C225.198 249.858 224.469 250.425 224.926 251.426C225.427 252.516 226.208 252.237 226.96 251.962C233.643 249.545 238.718 254.933 235.11 257.388C232.364 259.218 228.192 258.331 226.203 255.803C222.551 251.154 219.392 249.434 218.044 248.699V248.694Z" fill="#191919"/>
<path d="M93.5355 151.372C90.908 149.744 86.6039 149.052 89.1794 149.193C89.8061 149.224 89.839 149.215 90.4799 149.096C96.6455 147.957 98.4668 150.047 99.0675 149.577C99.8527 148.966 98.2563 146.065 93.0651 146.578C90.194 146.859 89.4088 147.022 89.2078 146.88C90.1727 145.327 97.7121 140.171 94.8173 138.532C93.9707 138.054 93.5901 138.679 93.2212 139.282C91.7005 141.758 89.1085 143.875 86.6276 145.383C88.4037 142.649 92.5566 136.247 89.1605 131.151C83.6973 122.958 67.3668 128.852 67.7263 144.253C59.787 141.656 53.2761 148.307 59.0467 153.417C60.7921 154.966 62.4904 155.253 64.7111 155.785C63.1195 157.982 60.0828 162.799 63.8597 166.065C67.3883 169.119 71.7517 165.905 74.786 162.331C84.0521 177.737 112.692 163.211 93.5402 151.369L93.5355 151.372ZM93.6679 165.398C88.9025 167.938 83.4183 166.699 80.0955 164.341C74.2894 160.221 77.4913 156.473 74.6321 156.473C72.5816 156.473 74.436 158.795 71.0209 162.837C69.0935 165.119 64.9143 165.881 64.6305 162.421C64.3727 159.278 67.1161 155.955 70.3869 155.451C76.2213 154.548 79.2746 152.639 80.5777 151.826C80.8071 151.681 80.9658 151.558 80.9658 151.558C85.0951 151.487 89.0396 151.007 92.4502 153.29C97.989 156.031 99.1926 162.461 93.6679 165.398ZM71.4585 148.855C72.5629 148.115 71.9598 146.833 71.6406 145.96C70.2925 142.273 70.4108 139.506 71.8913 137.054C82.2571 122.086 93.8479 133.736 83.91 144.917C82.7227 146.254 80.9206 147.032 79.6932 148.437C79.1256 148.775 74.9159 148.51 69.0152 152.568C66.4917 154.302 61.9417 153.155 60.2082 150.996C57.1597 146.594 63.7888 144.575 68.8641 147.904C69.4364 148.278 70.2334 149.666 71.4585 148.85V148.855Z" fill="#191919"/>
<path d="M227.021 45.1245C225.451 42.8115 223.161 40.2738 218.829 40.3897C228.485 27.6684 225.843 21.6186 224.226 19.5823C221.794 16.5268 216.986 15.9615 212.263 18.1728C204.232 21.9331 201.919 29.603 200.2 37.8734C200.015 37.7788 199.793 37.6558 199.585 37.5399C197.565 36.4189 193.365 34.0894 188.162 36.3006C178.044 40.6002 185.258 54.031 197.153 51.7961C202.094 50.869 198.918 53.0046 203.284 52.2738C208.264 51.4343 210.379 49.7338 212.079 48.3692C214.917 46.0846 214.877 47.1229 215.307 46.0941C215.48 45.6779 215.695 45.1623 217.587 45.9049C218.384 46.2171 219.928 48.2983 220.695 47.7401C220.82 47.6455 220.891 47.4942 220.884 47.3405C220.794 45.2876 219.595 44.5025 218.055 43.4287C221.314 41.8182 223.613 44.4741 226.425 45.8174C226.863 46.0232 227.291 45.5194 227.021 45.1245ZM223.504 24.9983C223.202 30.4094 218.472 37.7078 214.07 41.6384C213.082 42.5206 211.388 42.7642 210.762 44.4268C210.684 44.4433 210.573 44.4623 210.483 44.4575C201.366 44.2258 197.697 53.1465 189.072 47.5273C184.314 44.4291 185.442 38.6656 191.783 38.5616C195.46 38.5001 199.637 40.0397 200.734 43.5801C200.836 43.9159 201.276 44.0247 201.524 43.7669C203.589 41.8844 201.238 36.7098 205.984 28.0089C211.762 17.4113 223.958 16.697 223.504 24.9983Z" fill="#191919"/>
<path d="M258.426 154.979C255.668 155.504 257.917 156.639 243.337 164.898C241.327 166.038 239.749 166.761 238.338 165.018C235.14 161.069 233.634 165.591 230.675 162.457C228.627 160.288 227.068 156.202 221.435 150.28C218.885 147.6 223.244 147.179 223.022 142.858C222.875 139.985 224.55 141.714 236.93 133.379C237.349 133.098 237.839 132.895 238.047 132.374C238.837 132.701 239.478 133.181 239.768 134.03C237.775 134.025 234.949 137.897 226.64 141.728C223.559 143.149 225.77 144.339 223.651 147.503C223.043 148.411 223.24 149.128 223.904 149.774C227.045 152.827 229.32 156.54 231.843 160.066C233.74 162.717 236.571 158.508 239.802 162.935C240.497 163.89 241.043 163.431 241.715 163.036C257.761 153.6 254.862 152.186 258.428 154.981L258.426 154.979Z" fill="#38A1FF"/>
<path d="M282.88 126.379C284.886 122.957 291.427 118.251 291.959 117.945C295.093 116.157 292.454 114.275 295.649 111.054C296.852 109.841 296.01 109.623 290.661 103.904C289.117 102.254 285.718 106.031 281.619 101.556C279.037 98.7369 266.259 107.729 263.504 109.642C263.005 109.394 262.683 109.001 262.524 108.467C264.946 105.491 272.673 100.378 279.375 98.8575C284.107 97.7838 282.899 103.164 287.965 101.575C291.269 100.539 292.037 102.114 298.03 108.812C300.766 111.87 295.606 111.122 295.372 117.101C295.299 119.007 294.79 117.945 284.029 127.476C283.495 127.273 282.951 127.074 282.875 126.379H282.88Z" fill="#38A1FF"/>
<path d="M270.785 132.124C270.951 135.238 268.3 136.234 270.96 137.963C273.659 139.715 271.956 142.724 268.95 139.874C266.483 137.535 266.044 140.77 262.477 140.699C261.56 140.68 260.405 140.898 260.152 139.694C259.899 138.49 261.016 138.147 261.914 137.96C270.575 136.151 269.222 123.945 260.152 131C256.48 133.855 252.438 134.803 250.406 130.82C247.677 125.476 251.336 125.014 248.368 122.56C247.386 121.746 246.232 120.677 246.859 119.653C248.28 117.328 249.969 122.758 253.677 119.367C254.171 118.915 255.363 119.705 254.76 120.623C253.362 122.756 251.766 123.534 252.334 127.829C253.093 133.576 258.405 128.732 260.249 127.412C265.001 124.014 270.911 126.372 270.785 132.124Z" fill="#38A1FF"/>
<path d="M297.794 178.234C296.032 178.934 294.934 183.557 289.592 186.145C286.579 187.604 285.02 185.369 285.938 182.869C286.737 180.691 289.809 177.595 291.86 171.881C292.681 169.597 292.39 168.547 289.604 172.042C281.903 181.706 275.537 178.629 277.835 174.741C279.089 172.622 283.776 167.693 283.925 166.47C282.766 166.47 280.047 169.339 276.766 169.339C273.836 169.339 272.07 167.213 274.044 164.398C275.69 162.05 276.828 161.39 278.136 158.862C279.718 155.804 279.732 155.707 277.268 153.174C274.243 150.064 276.558 145.311 280.461 145.19C284.519 145.062 288.433 145.76 292.297 146.869C303.633 150.119 311.797 154.144 315.184 164.966C319.069 177.385 313.916 179.977 314.824 200.708C315.035 205.533 314.907 207.063 313.49 207.614C312.244 208.099 311.395 207.186 310.647 206.373C306.01 201.309 307.883 178.839 305.572 185.563C305.111 186.906 303.276 192.819 301.601 194.945C299.709 197.348 296.408 195.834 296.316 191.461C296.207 186.395 298.29 180.308 297.791 178.231L297.794 178.234Z" fill="#38A1FF"/>
<path d="M224.133 97.7292C222.44 96.6034 206.216 93.8222 207.969 89.2081C209.501 85.1757 217.887 89.577 221.716 88.9077C222.04 87.0867 215.203 86.4859 207.406 78.2557C204.915 75.6259 204.168 71.8631 207.711 72.0429C209.352 72.1257 235.757 84.2439 236.261 84.4757C247.017 89.4304 250.929 95.9838 252.223 104.441C252.435 105.834 251.761 106.522 250.054 108.275C236.533 122.155 236.954 122.202 235.372 122.207C229.679 122.221 225.07 125.43 223.438 122.571C221.806 119.712 224.666 117.751 226.934 115.476C224.871 115.325 220.858 116.912 219.105 117.106C215.534 117.496 214.912 113.456 219.24 110.223C223.438 107.087 226.477 107.184 227.894 105.988C219.623 105.333 220.638 106.678 216.09 106.376C210.043 105.974 215.094 98.3535 220.976 97.7457C221.816 97.6582 222.674 97.7315 224.136 97.7315L224.133 97.7292Z" fill="#38A1FF"/>
<path d="M315.446 115.477C311.792 109.472 297.732 96.2421 293.111 91.8952C291.037 89.9417 289.559 89.7076 279.756 91.8881C260.465 96.1806 252.128 107.341 240.807 120.247C229.105 133.571 215.721 136.251 208.309 139.313C204.745 140.787 204.939 143.566 204.144 148.473C203.653 151.512 204.778 151.706 210.627 160.771C215.236 167.918 220.782 175.157 227.577 182.903C229.036 184.57 230.684 185.18 232.794 184.698C254.796 179.684 274.699 158.846 276.355 155.88C277.057 154.636 275.828 153.589 274.799 154.357C273.039 155.667 269.527 159.738 266.003 162.59C264.057 157.51 263.794 157.633 264.863 156.542C273.425 147.82 278.107 139.19 286.042 133.881C286.704 134.889 286.794 135.908 287.286 136.854C289.334 140.78 286.26 141.168 285.368 142.404C285.001 142.915 284.029 143.549 284.725 144.415C286.146 146.165 290.37 139.448 300.407 135.78C310.778 131.982 311.724 133.609 312.542 130.639C316.182 117.416 316.681 117.503 315.446 115.477ZM258.324 158.619C243.597 170.354 239.499 169.593 233.653 171.856C230.777 172.972 231.768 170.028 223.72 160.405C222.45 158.891 210.717 143.582 209.17 141.506C217.585 138.732 227.066 135.56 234.996 129.217C241.178 136.447 254.342 151.879 259.221 155.977C260.64 157.167 260.564 156.838 258.324 158.619ZM232.803 178.163C233.12 175.674 233.716 174.3 234.589 174.041C254.599 168.112 259.372 160.584 262.215 159.293C264.513 163.98 264.442 163.999 260.431 167.303C250.314 175.635 236.067 181.907 232.446 181.907C232.21 181.907 232.278 182.3 232.806 178.163H232.803ZM237.032 127.723C243.865 120.862 249.72 113.265 256.605 106.681C265.069 115.715 277.353 124.974 284.301 131.521C275.416 138.349 272.864 144.022 262.302 155.194C253.107 146.598 245.418 136.747 237.032 127.723ZM313.535 116.742C303.228 118.383 295.999 123.359 288.35 128.624C287.149 129.45 286.009 129.36 284.93 128.354C283.31 126.639 273.578 118.837 258.783 104.924C265.608 98.7158 274.42 94.8231 284.982 93.352C292.621 92.2807 289.838 92.2192 303.375 105.165C307.753 109.351 311.232 112.676 313.535 116.742ZM229.426 172.724C230.644 174.431 230.15 175.384 229.996 177.865C229.93 178.934 229.859 180.036 229.537 181.157C226.789 178.632 217.469 166.71 210.194 155.495C207.571 151.446 205.994 151.247 206.55 148.764C206.956 146.945 206.874 145.304 207.545 143.341C212.046 148.707 225.765 167.573 229.426 172.724ZM289.093 131.495C300.192 123.79 303.415 122.151 312.738 119.606C309.512 129.253 310.848 129.842 308.233 130.518C299.248 132.833 295.206 135.106 290.618 138.041C288.251 132.098 287.953 132.289 289.093 131.495Z" fill="#191919"/>
<path d="M238.42 144.767C244.865 144.684 245.553 153.952 239.196 154.061C232.742 154.172 231.969 144.849 238.42 144.767ZM241.668 149.674C241.798 145.985 236.003 145.079 235.921 149.061C235.847 152.595 241.54 153.328 241.668 149.674Z" fill="#38A1FF"/>
<path d="M284.621 113.029C284.67 120.067 275.979 119.09 275.915 113.18C275.849 106.972 284.573 106.289 284.621 113.029ZM282.892 113.164C283.197 109.756 278.335 108.422 277.888 112.31C277.393 116.595 282.511 117.425 282.892 113.164Z" fill="#38A1FF"/>
<path d="M130.588 83.1271C129.08 81.5781 129.304 83.4937 117.796 77.6333C116.209 76.8244 115.074 76.1149 115.597 74.4689C116.779 70.7322 113.232 71.6876 113.986 68.4547C114.509 66.2127 116.474 63.4764 117.888 57.3368C118.529 54.5603 120.651 57.1831 123.337 55.206C125.123 53.891 124.704 55.7381 135.344 60.1228C135.704 60.2718 136.042 60.5012 136.465 60.4137C136.591 61.0593 136.553 61.6766 136.134 62.2276C135.29 60.9458 131.598 60.7732 125.603 57.0554C123.38 55.6766 123.55 57.6041 120.615 57.5851C119.771 57.5804 119.397 58.0132 119.262 58.7109C118.631 62.0266 117.212 65.068 116.015 68.1898C115.114 70.5382 119.028 70.569 117.553 74.528C117.233 75.3818 117.761 75.5355 118.305 75.8004C131.208 82.0818 130.87 79.6459 130.588 83.1271Z" fill="#38A1FF"/>
<path d="M159.373 86.6888C162.426 86.528 168.234 88.7322 168.653 88.945C171.131 90.2009 171.221 87.7034 174.655 88.3916C175.947 88.6494 175.727 88.0132 177.131 82.1457C177.538 80.4476 173.662 79.8705 174.797 75.3321C175.511 72.4728 164.299 68.0763 161.894 67.1161C161.844 66.6928 161.958 66.3144 162.234 65.9856C165.176 66.2765 171.751 69.0767 175.575 72.7401C178.278 75.3274 174.303 76.8362 177.481 79.4188C179.553 81.1027 178.863 82.2687 177.103 88.9687C176.299 92.0314 174.591 88.394 170.644 90.7826C169.386 91.5442 169.854 90.7685 159.153 87.8997C159.056 87.4669 158.954 87.0318 159.37 86.6912L159.373 86.6888Z" fill="#38A1FF"/>
<path d="M132.374 118.326C131.175 117.492 127.729 118.745 123.794 116.413C121.575 115.098 122.349 113.145 124.347 112.672C126.085 112.26 129.385 112.92 133.928 111.813C135.747 111.371 136.3 110.739 132.866 110.434C123.378 109.592 122.652 104.186 126.13 104.013C128.027 103.919 133.188 104.839 134.041 104.415C133.547 103.673 130.548 103.138 129.151 101.029C127.904 99.1463 128.519 97.1029 131.17 97.1762C133.379 97.2377 134.285 97.6871 136.47 97.4529C139.11 97.1691 139.178 97.1384 139.76 94.4777C140.472 91.2117 144.516 90.6772 146.254 93.1344C148.063 95.691 149.274 98.5053 150.204 101.462C152.926 110.134 153.81 117.09 148.293 123.868C141.959 131.646 138.104 129.437 125.154 138.829C122.138 141.016 121.1 141.581 120.145 140.91C119.3 140.314 119.527 139.377 119.733 138.557C121.029 133.422 136.262 125.083 130.962 126.448C129.9 126.72 125.322 128.058 123.24 127.883C120.892 127.685 120.459 124.922 123.231 123.002C126.443 120.779 131.244 119.528 132.369 118.329L132.374 118.326Z" fill="#38A1FF"/>
<path d="M152.822 36.7358C152.822 35.1678 147.725 23.5533 151.438 22.7208C154.68 21.9947 155.418 29.2577 157.476 31.4358C158.786 30.8682 156.267 26.2186 158.242 17.707C158.874 14.9849 160.976 12.906 162.367 15.2616C163.012 16.3542 166.442 38.4835 166.505 38.9021C167.837 47.9317 165.335 53.2222 160.449 57.6542C159.645 58.3826 158.914 58.2431 157.062 57.8884C142.39 55.0787 142.541 55.3838 141.862 54.3645C139.433 50.7129 135.408 49.1095 136.557 46.8462C137.707 44.5805 140.178 45.588 142.605 46.0799C141.824 44.6917 139.1 42.7855 138.232 41.7401C136.465 39.6093 138.795 37.4926 142.711 38.8974C146.512 40.262 147.744 42.2604 149.113 42.6672C146.017 37.0716 145.585 38.2943 143.846 35.2411C141.536 31.1828 148.576 31.1922 151.471 34.7114C151.885 35.2151 152.2 35.7993 152.824 36.7358H152.822Z" fill="#38A1FF"/>
<path d="M180.35 69.9075C169.369 59.31 158.677 58.6832 145.464 56.8669C131.969 55.0127 124.583 47.5701 119.463 44.1006C116.869 42.3363 114.896 43.8287 111.637 45.2973C109.391 46.3095 109.76 47.142 106.399 54.781C103.764 60.7715 101.463 67.4219 99.3607 75.1152C98.8854 76.8559 99.2378 78.2181 100.472 79.4006C113.073 91.4456 135.034 95.3715 137.645 95.2154C138.312 95.1657 138.669 94.7306 138.726 94.319C138.97 92.5406 135.24 93.0017 129.193 91.1405C131.461 87.9548 131.265 87.9028 132.284 88.1015C141.439 89.8799 148.962 89.2579 155.667 92.0132C155.305 92.7463 154.744 93.2193 154.364 93.9052C153.2 96.0077 152.145 95.6032 151.126 95.213C150.241 94.8748 150.355 94.9883 149.811 94.9008C149.404 94.8323 148.645 94.7116 148.397 95.5015C148.103 96.4215 149.276 96.8165 151.22 97.4669C156.487 99.2312 159.95 100.903 165.992 106.506C167.338 107.755 167.785 108.235 169.294 107.748C179.352 104.463 179.567 104.815 180.383 103.081C182.706 98.1551 185.239 83.4755 186.071 78.6509C186.457 76.416 185.974 75.3376 180.35 69.9075ZM108.083 76.0234C120.036 86.0699 127.015 86.2993 129.181 87.4511C127.308 90.6344 127.202 90.5989 123.559 89.4826C114.017 86.5524 104.06 80.1858 102.416 77.8374C107.418 75.4511 107.182 75.2713 108.083 76.0234ZM116.188 45.7041C114.511 51.1933 108.478 67.3178 106.688 71.9532C106.132 73.3864 105.41 73.4314 103.686 74.4176C103.06 74.7771 102.416 75.146 101.695 75.4085C102.329 72.2087 105.987 61.3793 109.913 52.39C111.408 48.9607 110.848 47.9461 112.593 47.2792C113.832 46.8109 114.823 46.118 116.188 45.7041ZM129.961 84.9536C129.85 84.9868 129.394 84.8307 128.914 84.6698C113.898 79.6395 113.915 77.5086 109.296 74.2307C107.525 72.9773 109.771 72.3033 112.501 63.1625C112.846 62.0155 117.474 48.5421 118.385 46.0021C123.68 50.1811 129.668 54.8235 136.976 57.2169C135.647 61.9706 130.491 79.805 130.226 83.0829C130.212 83.1799 130.014 84.8709 129.961 84.9536ZM158.654 93.0207C168.156 96.8094 170.639 98.1953 176.058 102.925C168.762 104.912 169.027 105.919 167.593 104.623C162.362 99.8957 159.186 98.2308 155.416 96.5492C157.968 92.8717 157.812 92.6801 158.654 93.0207ZM139.145 57.9785C146.351 59.4235 153.6 59.9651 160.659 61.5543C158.528 70.6028 157.724 82.4988 156.528 89.5654C148.574 86.8622 143.539 87.522 132.284 85.5685C133.902 76.1346 136.922 67.0813 139.142 57.9808L139.145 57.9785ZM160.312 91.0104C158.876 90.4286 158.848 90.4215 159.138 88.8772C159.63 86.278 160.359 78.0147 163.06 62.2969C169.85 64.0636 176.008 68.0439 181.372 74.129C183.169 76.1582 184.595 76.7495 183.51 81.2288C181.204 90.7668 181.022 96.9915 178.548 102.017C173.123 96.1874 166.893 93.671 160.309 91.0128L160.312 91.0104Z" fill="#191919"/>
<path d="M150.53 81.3567C148.598 82.7875 146.836 81.5033 146.852 83.9487C146.871 86.4249 144.215 86.6117 144.766 83.4639C145.22 80.8813 142.957 81.9787 141.486 79.6539C141.108 79.0556 140.481 78.4075 141.146 77.7312C141.81 77.0548 142.508 77.6295 143.009 78.1285C147.85 82.9318 155.127 76.875 146.736 74.037C143.34 72.8876 141.013 70.6929 142.709 67.6941C144.989 63.6665 146.836 65.821 147.155 62.8742C147.261 61.8951 147.46 60.7008 148.382 60.6701C150.48 60.5967 147.708 63.9976 151.464 64.9318C151.968 65.0571 151.963 66.1592 151.114 66.1639C149.144 66.171 147.971 65.4757 145.45 67.6681C142.077 70.6007 147.448 71.9558 149.085 72.5802C153.295 74.186 154.283 78.9893 150.53 81.3567Z" fill="#38A1FF"/>
<path d="M128.652 65.9128C131.442 70.0232 125.778 74.4008 123.006 70.359C120.234 66.3172 125.858 61.7977 128.652 65.9128ZM126.875 70.087C129.307 68.6018 127.419 64.4914 124.827 66.128C122.526 67.5825 124.473 71.5533 126.875 70.087Z" fill="#38A1FF"/>
<path d="M168.695 82.1372C164.188 85.1644 161.125 79.1549 164.9 76.6007C168.861 73.9188 173.009 79.24 168.695 82.1372ZM167.875 81.08C170.195 79.8265 168.986 76.1348 166.297 77.4994C163.332 79.0035 164.973 82.648 167.875 81.08Z" fill="#38A1FF"/>
<path d="M163.521 211.293C166.297 210.877 164.53 212.695 181.022 215.67C183.297 216.082 185.026 216.243 185.782 214.131C187.495 209.346 190.411 213.116 192.17 209.186C193.388 206.464 193.509 202.086 196.872 194.641C198.395 191.268 194.143 192.311 192.922 188.161C192.111 185.401 191.094 187.617 176.661 183.807C176.171 183.677 175.641 183.651 175.277 183.225C174.641 183.793 174.194 184.462 174.203 185.356C176.081 184.691 180.033 187.413 189.141 188.286C192.518 188.61 190.827 190.467 193.873 192.751C194.748 193.406 194.795 194.149 194.386 194.974C192.433 198.893 191.51 203.148 190.295 207.31C189.38 210.441 185.316 207.398 183.73 212.648C183.389 213.778 182.72 213.525 181.953 213.376C169.464 210.943 165.86 208.753 164.502 209.044C163.873 209.179 163.447 210.006 163.521 211.293Z" fill="#38A1FF"/>
<path d="M130.971 192.376C127.949 189.813 120.217 187.528 119.619 187.417C116.074 186.769 117.94 184.118 113.858 182.131C112.323 181.384 113.044 180.899 116.202 173.735C117.115 171.664 121.573 174.109 123.961 168.532C125.465 165.018 140.5 169.28 143.733 170.178C144.121 169.781 144.296 169.301 144.267 168.743C141.001 166.733 132.014 164.464 125.189 165.243C120.364 165.794 123.287 170.472 117.973 170.644C114.513 170.758 114.307 172.498 110.864 180.802C109.291 184.593 113.915 182.181 116.114 187.748C116.817 189.524 116.94 188.356 130.248 193.79C130.685 193.422 131.135 193.055 130.971 192.376Z" fill="#38A1FF"/>
<path d="M153.841 199.549C150.889 200.554 149.212 198.27 148.273 201.301C147.32 204.374 143.964 203.558 145.89 199.885C147.467 196.872 144.241 197.333 143.333 193.882C143.099 192.991 142.581 191.943 143.669 191.368C144.802 190.77 145.393 191.78 145.814 192.591C149.889 200.443 161.288 195.808 152.036 189.001C148.292 186.246 146.28 182.613 149.56 179.577C153.966 175.499 155.399 178.888 156.955 175.369C157.471 174.201 158.188 172.801 159.339 173.122C161.964 173.856 157.199 176.961 161.465 179.607C162.038 179.962 161.6 181.322 160.553 180.991C158.117 180.22 156.941 178.903 152.958 180.617C147.635 182.911 153.739 186.705 155.515 188.121C160.084 191.768 159.413 198.095 153.841 199.542V199.549Z" fill="#38A1FF"/>
<path d="M183.559 195.556C180.293 192.659 173.718 196.133 175.49 201.455C176.294 203.865 178.555 205.243 181.421 204.295C185.726 202.871 186.182 197.881 183.559 195.556ZM180.783 201.947C178.11 202.968 176.717 199.735 178.219 197.874C178.846 197.096 179.884 196.604 180.83 196.755C182.951 197.101 183.765 200.804 180.78 201.944L180.783 201.947Z" fill="#38A1FF"/>
<path d="M133.414 177.543C132.054 173.527 127.551 172.971 125.371 175.466C122.954 178.231 125.099 184.124 129.089 184.124C131.986 184.124 134.613 181.09 133.414 177.543ZM130.815 180.717C129.895 182.046 127.849 182.095 126.816 179.811C125.938 177.876 127.367 176.065 128.864 176.065C130.709 176.065 131.924 179.113 130.815 180.717Z" fill="#38A1FF"/>
<path d="M134.024 246.246C135.916 246.329 138.485 250.323 144.381 251.002C147.701 251.385 148.439 248.76 146.748 246.703C145.277 244.912 141.346 243.008 137.527 238.288C135.999 236.4 135.926 235.317 139.71 237.697C150.168 244.276 155.163 239.267 151.707 236.358C149.825 234.771 143.773 231.665 143.224 230.563C144.317 230.185 147.834 231.989 150.932 230.909C153.694 229.946 154.664 227.352 151.873 225.346C149.543 223.672 148.257 223.426 146.185 221.472C143.681 219.11 143.633 219.022 145.123 215.818C146.954 211.882 143.201 208.16 139.473 209.333C135.746 210.506 132.139 212.502 128.854 214.827C119.231 221.64 112.858 228.135 113.236 239.466C113.669 252.471 119.383 253.218 125.383 273.079C126.78 277.705 127.407 279.105 128.921 279.16C130.259 279.207 130.756 278.067 131.191 277.053C133.887 270.738 124.711 250.146 129.105 255.737C129.983 256.853 133.667 261.827 135.952 263.279C138.53 264.92 141.15 262.401 139.795 258.246C138.222 253.431 134.249 248.37 134.029 246.249L134.024 246.246Z" fill="#38A1FF"/>
<path d="M176.966 145.93C178.193 144.305 192.575 136.325 189.399 132.551C186.622 129.252 180.159 136.172 176.325 136.808C175.422 135.193 181.67 132.369 186.312 122.029C187.798 118.72 187.256 114.922 183.973 116.263C182.45 116.885 161.532 137.044 161.135 137.428C152.623 145.66 151.095 153.136 152.665 161.543C152.923 162.927 153.787 163.355 155.976 164.445C173.328 173.073 172.943 173.262 174.438 172.744C179.813 170.88 185.227 172.385 185.823 169.147C186.419 165.909 183.072 165.003 180.182 163.606C182.079 162.78 186.39 162.953 188.107 162.553C191.603 161.74 190.86 157.724 185.709 156.104C180.712 154.531 177.872 155.624 176.143 154.969C183.732 151.62 183.219 153.223 187.412 151.435C192.984 149.059 185.697 143.52 179.953 144.899C179.132 145.095 178.342 145.447 176.968 145.927L176.966 145.93Z" fill="#38A1FF"/>
<path d="M212.583 187.222C210.258 182.93 209.494 180.165 205.625 179.952C197.222 179.494 183.976 181.334 168.655 172.694C153.325 164.052 142.127 156.48 122.523 158.795C112.557 159.975 111.238 160.685 109.918 163.215C102.08 178.283 97.608 188.254 96.6289 192.849C96.137 195.155 96.5225 194.847 104.379 206.199C106.134 208.734 106.496 206.887 117.533 207.043C128.247 207.192 134.417 212.142 135.188 210.014C135.562 208.98 134.391 208.661 133.918 208.332C132.672 207.467 129.64 208.11 130.271 203.732C130.425 202.671 130.174 201.668 130.465 200.507C139.733 202.902 146.885 209.451 157.937 214.898C159.304 215.572 159.015 215.55 158.857 220.983C154.56 219.441 150.002 216.799 147.834 216.116C146.616 215.735 145.797 217.121 146.869 218.069C150.3 221.108 176.124 233.302 197.506 230.878C199.62 230.639 200.996 229.551 201.836 227.461C205.696 217.885 208.538 209.222 210.523 200.973C213.051 190.47 214.049 189.923 212.58 187.225L212.583 187.222ZM100.562 195.838C110.199 195.159 113.782 195.642 126.804 199.253C128.159 199.629 127.793 199.587 127.53 205.934C123.68 205.021 120.215 204.343 115.052 204.343C103.353 204.343 109.386 207.226 100.562 195.838ZM126.549 196.304C117.025 193.707 108.889 191.598 98.8544 193.405C100.179 186.097 104.897 179.628 110.133 167.68C112.574 162.113 114.768 162.558 118.079 161.9C128.528 159.8 138.132 160.566 146.627 164.168C138.083 180.605 131.695 191.075 129.682 194.923C128.998 196.228 127.953 196.688 126.546 196.302L126.549 196.304ZM149.264 165.105C157.916 169.04 165.997 174.291 174.693 178.5C169.741 189.829 165.772 201.592 159.916 212.776C146.19 205.686 142.12 201.256 131.328 197.699C135.493 189.682 144.414 176.086 149.264 165.105ZM209.193 195.845C206.034 208.836 201.174 223.161 199.414 226.453C198.317 224.902 197.894 223.241 197.07 221.695C196.498 220.626 196.394 219.625 196.735 218.459C198.565 212.135 205.218 190.023 207.68 183.5C208.952 185.12 209.461 186.764 210.411 188.289C211.748 190.439 210.331 191.177 209.193 195.845ZM198.052 204.953C193.61 216.761 195.557 219.145 192.459 219.046C186.374 218.84 182.516 220.895 164.8 214.699C163.672 214.304 162.598 214.006 162.504 213.758C162.411 213.512 162.965 212.748 163.703 211.423C165.661 208.349 175.111 184.328 177.105 179.238C186.693 182.613 196.685 182.471 205.537 182.308C204.745 184.834 198.752 203.084 198.05 204.955L198.052 204.953ZM161.352 216.612C164.381 216.887 171.668 222.411 192.296 221.404C192.281 221.118 192.267 221.063 192.322 221.404C194.013 221.323 193.566 221.338 197.049 228.073C193.92 229.353 178.146 228.191 165.677 223.587C160.817 221.792 160.725 221.837 161.35 216.615L161.352 216.612Z" fill="#191919"/>
</svg>
