<svg width="97" height="123" viewBox="0 0 97 123" fill="none" xmlns="http://www.w3.org/2000/svg">
<path d="M33.4318 62L23.5682 27.0909H31.9545L38.0909 51.6364H38.4091L44.6818 27.0909H52.9773L59.25 51.5H59.5909L65.6364 27.0909H74.0455L64.1591 62H55.5909L49.0455 38.4091H48.5682L42.0227 62H33.4318Z" fill="white"/>
<path d="M38.8636 108V73.0909H48.25V79.1818H48.6136C49.25 77.0152 50.3182 75.3788 51.8182 74.2727C53.3182 73.1515 55.0455 72.5909 57 72.5909C57.4848 72.5909 58.0076 72.6212 58.5682 72.6818C59.1288 72.7424 59.6212 72.8258 60.0455 72.9318V81.5227C59.5909 81.3864 58.9621 81.2652 58.1591 81.1591C57.3561 81.053 56.6212 81 55.9545 81C54.5303 81 53.2576 81.3106 52.1364 81.9318C51.0303 82.5379 50.1515 83.3864 49.5 84.4773C48.8636 85.5682 48.5455 86.8258 48.5455 88.25V108H38.8636Z" fill="white"/>
<path d="M95.5 42.5H97V41H95.5V42.5ZM95.5 92.5V94H97V92.5H95.5ZM59.4393 91.4393C58.8536 92.0251 58.8536 92.9749 59.4393 93.5607L68.9853 103.107C69.5711 103.692 70.5208 103.692 71.1066 103.107C71.6924 102.521 71.6924 101.571 71.1066 100.985L62.6213 92.5L71.1066 84.0147C71.6924 83.4289 71.6924 82.4792 71.1066 81.8934C70.5208 81.3076 69.5711 81.3076 68.9853 81.8934L59.4393 91.4393ZM73.5 44H95.5V41H73.5V44ZM94 42.5V92.5H97V42.5H94ZM95.5 91H60.5V94H95.5V91Z" fill="white"/>
<path d="M1.5 42.5L1.5 41L6.14131e-07 41L5.96244e-07 42.5L1.5 42.5ZM23.0607 43.5607C23.6464 42.9749 23.6464 42.0251 23.0607 41.4393L13.5147 31.8934C12.9289 31.3076 11.9792 31.3076 11.3934 31.8934C10.8076 32.4792 10.8076 33.4289 11.3934 34.0147L19.8787 42.5L11.3934 50.9853C10.8076 51.5711 10.8076 52.5208 11.3934 53.1066C11.9792 53.6924 12.9289 53.6924 13.5147 53.1066L23.0607 43.5607ZM1.5 92.5L0 92.5L-1.78873e-08 94L1.5 94L1.5 92.5ZM1.5 44L22 44L22 41L1.5 41L1.5 44ZM34 91L1.5 91L1.5 94L34 94L34 91ZM3 92.5L3 42.5L5.96244e-07 42.5L0 92.5L3 92.5Z" fill="white"/>
</svg>
