<svg width="122" height="46" viewBox="0 0 122 46" fill="none" xmlns="http://www.w3.org/2000/svg">
<g filter="url(#filter0_d_355_3988)">
<path d="M25.2926 19L22.0824 8.09091H24.277L26.4148 16.1023H26.5213L28.6662 8.09091H30.8608L32.9915 16.0668H33.098L35.2216 8.09091H37.4162L34.2131 19H32.0469L29.831 11.1236H29.6676L27.4517 19H25.2926ZM42.6062 19.2415C41.9149 19.2415 41.2899 19.1136 40.7312 18.858C40.1725 18.5975 39.7298 18.2211 39.4031 17.7287C39.0811 17.2363 38.9201 16.6326 38.9201 15.9176C38.9201 15.3021 39.0385 14.7955 39.2752 14.3977C39.512 14 39.8316 13.6851 40.234 13.4531C40.6365 13.2211 41.0863 13.0459 41.5835 12.9276C42.0806 12.8092 42.5872 12.7192 43.1033 12.6577C43.7567 12.5819 44.2871 12.5204 44.6942 12.473C45.1014 12.4209 45.3974 12.3381 45.582 12.2244C45.7667 12.1108 45.859 11.9261 45.859 11.6705V11.6207C45.859 11.0005 45.6838 10.5199 45.3335 10.179C44.9878 9.83807 44.4717 9.66761 43.7852 9.66761C43.0702 9.66761 42.5067 9.82623 42.0948 10.1435C41.6876 10.456 41.4059 10.804 41.2496 11.1875L39.2539 10.733C39.4906 10.0701 39.8363 9.53504 40.2908 9.12784C40.7501 8.71591 41.2781 8.41761 41.8746 8.23295C42.4712 8.04356 43.0986 7.94886 43.7567 7.94886C44.1924 7.94886 44.654 8.00095 45.1417 8.10511C45.6341 8.20455 46.0934 8.3892 46.5195 8.65909C46.9504 8.92898 47.3031 9.31487 47.5778 9.81676C47.8524 10.3139 47.9897 10.9602 47.9897 11.7557V19H45.9158V17.5085H45.8306C45.6933 17.7831 45.4873 18.053 45.2127 18.3182C44.9381 18.5833 44.5853 18.8035 44.1545 18.9787C43.7236 19.1539 43.2075 19.2415 42.6062 19.2415ZM43.0678 17.5369C43.6549 17.5369 44.1568 17.4209 44.5735 17.1889C44.9949 16.9569 45.3145 16.6539 45.5323 16.2798C45.7549 15.901 45.8661 15.4962 45.8661 15.0653V13.6591C45.7904 13.7348 45.6436 13.8059 45.4258 13.8722C45.2127 13.9337 44.9689 13.9882 44.6942 14.0355C44.4196 14.0781 44.1521 14.1184 43.8917 14.1562C43.6313 14.1894 43.4135 14.2178 43.2383 14.2415C42.8263 14.2936 42.4499 14.3812 42.109 14.5043C41.7728 14.6274 41.503 14.8049 41.2994 15.0369C41.1005 15.2642 41.0011 15.5672 41.0011 15.946C41.0011 16.4716 41.1952 16.8693 41.5835 17.1392C41.9717 17.4044 42.4665 17.5369 43.0678 17.5369ZM52.9418 4.45455V19H50.8182V4.45455H52.9418ZM57.9222 4.45455V19H55.7987V4.45455H57.9222ZM65.4808 19.2202C64.406 19.2202 63.4804 18.9905 62.7038 18.5312C61.9321 18.0672 61.3355 17.4162 60.9141 16.5781C60.4974 15.7353 60.2891 14.7481 60.2891 13.6165C60.2891 12.4991 60.4974 11.5142 60.9141 10.6619C61.3355 9.80966 61.9226 9.14441 62.6754 8.66619C63.433 8.18797 64.3184 7.94886 65.3317 7.94886C65.9472 7.94886 66.5438 8.05066 67.1214 8.25426C67.6991 8.45786 68.2176 8.77746 68.6768 9.21307C69.1361 9.64867 69.4983 10.2145 69.7635 10.9105C70.0286 11.6018 70.1612 12.4422 70.1612 13.4318V14.1847H61.4893V12.5938H68.0803C68.0803 12.035 67.9666 11.5402 67.7393 11.1094C67.5121 10.6738 67.1925 10.3305 66.7805 10.0795C66.3733 9.8286 65.8951 9.70312 65.3459 9.70312C64.7493 9.70312 64.2285 9.84991 63.7834 10.1435C63.343 10.4323 63.0021 10.8111 62.7607 11.2798C62.5239 11.7438 62.4055 12.2481 62.4055 12.7926V14.0355C62.4055 14.7647 62.5334 15.3849 62.7891 15.8963C63.0495 16.4077 63.4117 16.7983 63.8757 17.0682C64.3397 17.3333 64.8819 17.4659 65.5021 17.4659C65.9046 17.4659 66.2715 17.4091 66.603 17.2955C66.9344 17.1771 67.2209 17.0019 67.4624 16.7699C67.7038 16.5379 67.8885 16.2514 68.0163 15.9105L70.0263 16.2727C69.8653 16.8646 69.5765 17.383 69.1598 17.8281C68.7479 18.2685 68.2294 18.6117 67.6044 18.858C66.9841 19.0994 66.2763 19.2202 65.4808 19.2202ZM77.6097 8.09091V9.79545H71.6509V8.09091H77.6097ZM73.2489 5.47727H75.3725V15.7969C75.3725 16.2088 75.4341 16.5189 75.5572 16.7273C75.6803 16.9309 75.8389 17.0705 76.033 17.1463C76.2319 17.2173 76.4473 17.2528 76.6793 17.2528C76.8498 17.2528 76.9989 17.241 77.1268 17.2173C77.2546 17.1937 77.354 17.1747 77.4251 17.1605L77.8086 18.9148C77.6855 18.9621 77.5103 19.0095 77.283 19.0568C77.0558 19.1089 76.7717 19.1373 76.4308 19.142C75.872 19.1515 75.3512 19.0521 74.8683 18.8438C74.3853 18.6354 73.9947 18.3134 73.6964 17.8778C73.3981 17.4422 73.2489 16.8954 73.2489 16.2372V5.47727Z" fill="white"/>
<path d="M34.9276 35V24.0909H36.9801V25.8239H37.0938C37.2926 25.2367 37.643 24.7751 38.1449 24.4389C38.6515 24.098 39.2244 23.9276 39.8636 23.9276C39.9962 23.9276 40.1525 23.9323 40.3324 23.9418C40.517 23.9512 40.6615 23.9631 40.7656 23.9773V26.0085C40.6804 25.9848 40.5289 25.9588 40.3111 25.9304C40.0933 25.8973 39.8755 25.8807 39.6577 25.8807C39.1558 25.8807 38.7083 25.9872 38.3153 26.2003C37.9271 26.4086 37.6193 26.6998 37.392 27.0739C37.1648 27.4432 37.0511 27.8646 37.0511 28.3381V35H34.9276ZM46.9144 35.2202C45.8396 35.2202 44.9139 34.9905 44.1374 34.5312C43.3656 34.0672 42.7691 33.4162 42.3477 32.5781C41.931 31.7353 41.7227 30.7481 41.7227 29.6165C41.7227 28.4991 41.931 27.5142 42.3477 26.6619C42.7691 25.8097 43.3562 25.1444 44.109 24.6662C44.8666 24.188 45.752 23.9489 46.7653 23.9489C47.3808 23.9489 47.9774 24.0507 48.555 24.2543C49.1327 24.4579 49.6512 24.7775 50.1104 25.2131C50.5697 25.6487 50.9319 26.2145 51.1971 26.9105C51.4622 27.6018 51.5948 28.4422 51.5948 29.4318V30.1847H42.9229V28.5938H49.5138C49.5138 28.035 49.4002 27.5402 49.1729 27.1094C48.9457 26.6738 48.6261 26.3305 48.2141 26.0795C47.8069 25.8286 47.3287 25.7031 46.7795 25.7031C46.1829 25.7031 45.6621 25.8499 45.217 26.1435C44.7766 26.4323 44.4357 26.8111 44.1942 27.2798C43.9575 27.7438 43.8391 28.2481 43.8391 28.7926V30.0355C43.8391 30.7647 43.967 31.3849 44.2227 31.8963C44.4831 32.4077 44.8453 32.7983 45.3093 33.0682C45.7733 33.3333 46.3155 33.4659 46.9357 33.4659C47.3382 33.4659 47.7051 33.4091 48.0366 33.2955C48.368 33.1771 48.6545 33.0019 48.896 32.7699C49.1374 32.5379 49.3221 32.2514 49.4499 31.9105L51.4599 32.2727C51.2989 32.8646 51.0101 33.383 50.5934 33.8281C50.1815 34.2685 49.663 34.6117 49.038 34.858C48.4177 35.0994 47.7099 35.2202 46.9144 35.2202ZM58.5462 35.2202C57.4903 35.2202 56.5812 34.9811 55.8189 34.5028C55.0613 34.0199 54.4789 33.3546 54.0717 32.5071C53.6645 31.6596 53.4609 30.6889 53.4609 29.5952C53.4609 28.4872 53.6693 27.5095 54.0859 26.6619C54.5026 25.8097 55.0897 25.1444 55.8473 24.6662C56.6049 24.188 57.4974 23.9489 58.5249 23.9489C59.3535 23.9489 60.0921 24.1027 60.7408 24.4105C61.3894 24.7135 61.9126 25.1397 62.3104 25.6889C62.7128 26.2382 62.9519 26.8797 63.0277 27.6136H60.9609C60.8473 27.1023 60.5869 26.6619 60.1797 26.2926C59.7772 25.9233 59.2375 25.7386 58.5604 25.7386C57.9685 25.7386 57.45 25.8949 57.005 26.2074C56.5646 26.5152 56.2214 26.9555 55.9751 27.5284C55.7289 28.0966 55.6058 28.7689 55.6058 29.5455C55.6058 30.3409 55.7266 31.0275 55.968 31.6051C56.2095 32.1828 56.5504 32.6302 56.9908 32.9474C57.4358 33.2647 57.959 33.4233 58.5604 33.4233C58.9628 33.4233 59.3274 33.3499 59.6541 33.2031C59.9856 33.0516 60.2625 32.8362 60.4851 32.5568C60.7124 32.2775 60.871 31.9413 60.9609 31.5483H63.0277C62.9519 32.2538 62.7223 32.8835 62.3388 33.4375C61.9553 33.9915 61.4415 34.4271 60.7976 34.7443C60.1584 35.0616 59.4079 35.2202 58.5462 35.2202ZM68.4734 35.2415C67.7821 35.2415 67.1571 35.1136 66.5984 34.858C66.0397 34.5975 65.5969 34.2211 65.2702 33.7287C64.9483 33.2363 64.7873 32.6326 64.7873 31.9176C64.7873 31.3021 64.9057 30.7955 65.1424 30.3977C65.3791 30 65.6987 29.6851 66.1012 29.4531C66.5037 29.2211 66.9535 29.0459 67.4506 28.9276C67.9478 28.8092 68.4544 28.7192 68.9705 28.6577C69.6239 28.5819 70.1542 28.5204 70.5614 28.473C70.9686 28.4209 71.2646 28.3381 71.4492 28.2244C71.6339 28.1108 71.7262 27.9261 71.7262 27.6705V27.6207C71.7262 27.0005 71.551 26.5199 71.2006 26.179C70.855 25.8381 70.3389 25.6676 69.6523 25.6676C68.9374 25.6676 68.3739 25.8262 67.962 26.1435C67.5548 26.456 67.2731 26.804 67.1168 27.1875L65.1211 26.733C65.3578 26.0701 65.7035 25.535 66.158 25.1278C66.6173 24.7159 67.1452 24.4176 67.7418 24.233C68.3384 24.0436 68.9658 23.9489 69.6239 23.9489C70.0595 23.9489 70.5212 24.0009 71.0089 24.1051C71.5013 24.2045 71.9606 24.3892 72.3867 24.6591C72.8176 24.929 73.1703 25.3149 73.445 25.8168C73.7196 26.3139 73.8569 26.9602 73.8569 27.7557V35H71.783V33.5085H71.6978C71.5605 33.7831 71.3545 34.053 71.0799 34.3182C70.8053 34.5833 70.4525 34.8035 70.0217 34.9787C69.5908 35.1539 69.0747 35.2415 68.4734 35.2415ZM68.935 33.5369C69.5221 33.5369 70.024 33.4209 70.4407 33.1889C70.8621 32.9569 71.1817 32.6539 71.3995 32.2798C71.622 31.901 71.7333 31.4962 71.7333 31.0653V29.6591C71.6576 29.7348 71.5108 29.8059 71.293 29.8722C71.0799 29.9337 70.8361 29.9882 70.5614 30.0355C70.2868 30.0781 70.0193 30.1184 69.7589 30.1562C69.4985 30.1894 69.2807 30.2178 69.1055 30.2415C68.6935 30.2936 68.3171 30.3812 67.9762 30.5043C67.64 30.6274 67.3701 30.8049 67.1665 31.0369C66.9677 31.2642 66.8683 31.5672 66.8683 31.946C66.8683 32.4716 67.0624 32.8693 67.4506 33.1392C67.8389 33.4044 68.3337 33.5369 68.935 33.5369ZM76.6854 39.0909V24.0909H78.7592V25.8594H78.9368C79.0599 25.6321 79.2375 25.3693 79.4695 25.071C79.7015 24.7727 80.0234 24.5123 80.4354 24.2898C80.8473 24.0625 81.3918 23.9489 82.0689 23.9489C82.9496 23.9489 83.7356 24.1714 84.4268 24.6165C85.1181 25.0616 85.6603 25.7031 86.0533 26.5412C86.451 27.3793 86.6499 28.3878 86.6499 29.5668C86.6499 30.7457 86.4534 31.7566 86.0604 32.5994C85.6674 33.4375 85.1276 34.0838 84.4411 34.5384C83.7545 34.9882 82.9709 35.2131 82.0902 35.2131C81.4273 35.2131 80.8852 35.1018 80.4638 34.8793C80.0471 34.6567 79.7204 34.3963 79.4837 34.098C79.2469 33.7997 79.0646 33.5346 78.9368 33.3026H78.8089V39.0909H76.6854ZM78.7663 29.5455C78.7663 30.3125 78.8776 30.9848 79.1001 31.5625C79.3227 32.1402 79.6446 32.5923 80.0661 32.919C80.4875 33.241 81.0036 33.402 81.6143 33.402C82.2488 33.402 82.7791 33.2339 83.2053 32.8977C83.6314 32.5568 83.9534 32.0952 84.1712 31.5128C84.3937 30.9304 84.505 30.2746 84.505 29.5455C84.505 28.8258 84.3961 28.1795 84.1783 27.6065C83.9652 27.0336 83.6432 26.5814 83.2124 26.25C82.7862 25.9186 82.2536 25.7528 81.6143 25.7528C80.9988 25.7528 80.478 25.9115 80.0518 26.2287C79.6304 26.5459 79.3108 26.9886 79.093 27.5568C78.8752 28.125 78.7663 28.7879 78.7663 29.5455ZM89.2706 39.0909V24.0909H90.4993V26.1719H90.6484C90.8 25.8452 91.0083 25.5114 91.2734 25.1705C91.5386 24.8248 91.889 24.5336 92.3246 24.2969C92.7649 24.0601 93.3189 23.9418 93.9865 23.9418C94.8861 23.9418 95.6721 24.1785 96.3445 24.652C97.0215 25.1207 97.5471 25.7789 97.9212 26.6264C98.3 27.4692 98.4893 28.4517 98.4893 29.5739C98.4893 30.7008 98.3 31.688 97.9212 32.5355C97.5471 33.383 97.0215 34.0436 96.3445 34.517C95.6721 34.9905 94.8909 35.2273 94.0007 35.2273C93.3426 35.2273 92.791 35.1089 92.3459 34.8722C91.9055 34.6354 91.5481 34.3442 91.2734 33.9986C91.0036 33.6482 90.7952 33.3073 90.6484 32.9759H90.5348V39.0909H89.2706ZM90.5206 29.5526C90.5206 30.4332 90.6508 31.2145 90.9112 31.8963C91.1764 32.5734 91.5552 33.1061 92.0476 33.4943C92.5447 33.8778 93.1461 34.0696 93.8516 34.0696C94.576 34.0696 95.1868 33.8707 95.6839 33.473C96.1858 33.0705 96.567 32.5284 96.8274 31.8466C97.0926 31.1648 97.2251 30.4001 97.2251 29.5526C97.2251 28.7145 97.0949 27.9593 96.8345 27.2869C96.5788 26.6146 96.2 26.0819 95.6982 25.6889C95.1963 25.2912 94.5807 25.0923 93.8516 25.0923C93.1413 25.0923 92.5376 25.2841 92.0405 25.6676C91.5433 26.0464 91.1645 26.572 90.9041 27.2443C90.6484 27.9119 90.5206 28.6813 90.5206 29.5526Z" fill="white"/>
<path d="M118 13.5H118.5V13H118V13.5ZM118 29.5V30H118.5V29.5H118ZM105.146 29.1464C104.951 29.3417 104.951 29.6583 105.146 29.8536L108.328 33.0355C108.524 33.2308 108.84 33.2308 109.036 33.0355C109.231 32.8403 109.231 32.5237 109.036 32.3284L106.207 29.5L109.036 26.6716C109.231 26.4763 109.231 26.1597 109.036 25.9645C108.84 25.7692 108.524 25.7692 108.328 25.9645L105.146 29.1464ZM81.5 14H118V13H81.5V14ZM117.5 13.5V29.5H118.5V13.5H117.5ZM118 29H105.5V30H118V29Z" fill="white"/>
<path d="M4 13.5L4 13L3.5 13L3.5 13.5L4 13.5ZM16.8536 13.8536C17.0488 13.6583 17.0488 13.3417 16.8536 13.1464L13.6716 9.96447C13.4763 9.7692 13.1597 9.7692 12.9645 9.96447C12.7692 10.1597 12.7692 10.4763 12.9645 10.6716L15.7929 13.5L12.9645 16.3284C12.7692 16.5237 12.7692 16.8403 12.9645 17.0355C13.1597 17.2308 13.4763 17.2308 13.6716 17.0355L16.8536 13.8536ZM4 29.5L3.5 29.5L3.5 30L4 30L4 29.5ZM4 14L16.5 14L16.5 13L4 13L4 14ZM28.5 29L4 29L4 30L28.5 30L28.5 29ZM4.5 29.5L4.5 13.5L3.5 13.5L3.5 29.5L4.5 29.5Z" fill="white"/>
</g>
<defs>
<filter id="filter0_d_355_3988" x="0.5" y="4.45459" width="121" height="40.6362" filterUnits="userSpaceOnUse" color-interpolation-filters="sRGB">
<feFlood flood-opacity="0" result="BackgroundImageFix"/>
<feColorMatrix in="SourceAlpha" type="matrix" values="0 0 0 0 0 0 0 0 0 0 0 0 0 0 0 0 0 0 127 0" result="hardAlpha"/>
<feOffset dy="3"/>
<feGaussianBlur stdDeviation="1.5"/>
<feComposite in2="hardAlpha" operator="out"/>
<feColorMatrix type="matrix" values="0 0 0 0 0 0 0 0 0 0 0 0 0 0 0 0 0 0 0.25 0"/>
<feBlend mode="normal" in2="BackgroundImageFix" result="effect1_dropShadow_355_3988"/>
<feBlend mode="normal" in="SourceGraphic" in2="effect1_dropShadow_355_3988" result="shape"/>
</filter>
</defs>
</svg>
