<svg width="103" height="40" viewBox="0 0 103 40" fill="none" xmlns="http://www.w3.org/2000/svg">
<path d="M22.2926 19L19.0824 8.09091H21.277L23.4148 16.1023H23.5213L25.6662 8.09091H27.8608L29.9915 16.0668H30.098L32.2216 8.09091H34.4162L31.2131 19H29.0469L26.831 11.1236H26.6676L24.4517 19H22.2926ZM39.6062 19.2415C38.9149 19.2415 38.2899 19.1136 37.7312 18.858C37.1725 18.5975 36.7298 18.2211 36.4031 17.7287C36.0811 17.2363 35.9201 16.6326 35.9201 15.9176C35.9201 15.3021 36.0385 14.7955 36.2752 14.3977C36.512 14 36.8316 13.6851 37.234 13.4531C37.6365 13.2211 38.0863 13.0459 38.5835 12.9276C39.0806 12.8092 39.5872 12.7192 40.1033 12.6577C40.7567 12.5819 41.2871 12.5204 41.6942 12.473C42.1014 12.4209 42.3974 12.3381 42.582 12.2244C42.7667 12.1108 42.859 11.9261 42.859 11.6705V11.6207C42.859 11.0005 42.6838 10.5199 42.3335 10.179C41.9878 9.83807 41.4717 9.66761 40.7852 9.66761C40.0702 9.66761 39.5067 9.82623 39.0948 10.1435C38.6876 10.456 38.4059 10.804 38.2496 11.1875L36.2539 10.733C36.4906 10.0701 36.8363 9.53504 37.2908 9.12784C37.7501 8.71591 38.2781 8.41761 38.8746 8.23295C39.4712 8.04356 40.0986 7.94886 40.7567 7.94886C41.1924 7.94886 41.654 8.00095 42.1417 8.10511C42.6341 8.20455 43.0934 8.3892 43.5195 8.65909C43.9504 8.92898 44.3031 9.31487 44.5778 9.81676C44.8524 10.3139 44.9897 10.9602 44.9897 11.7557V19H42.9158V17.5085H42.8306C42.6933 17.7831 42.4873 18.053 42.2127 18.3182C41.9381 18.5833 41.5853 18.8035 41.1545 18.9787C40.7236 19.1539 40.2075 19.2415 39.6062 19.2415ZM40.0678 17.5369C40.6549 17.5369 41.1568 17.4209 41.5735 17.1889C41.9949 16.9569 42.3145 16.6539 42.5323 16.2798C42.7549 15.901 42.8661 15.4962 42.8661 15.0653V13.6591C42.7904 13.7348 42.6436 13.8059 42.4258 13.8722C42.2127 13.9337 41.9689 13.9882 41.6942 14.0355C41.4196 14.0781 41.1521 14.1184 40.8917 14.1562C40.6313 14.1894 40.4135 14.2178 40.2383 14.2415C39.8263 14.2936 39.4499 14.3812 39.109 14.5043C38.7728 14.6274 38.503 14.8049 38.2994 15.0369C38.1005 15.2642 38.0011 15.5672 38.0011 15.946C38.0011 16.4716 38.1952 16.8693 38.5835 17.1392C38.9717 17.4044 39.4665 17.5369 40.0678 17.5369ZM49.9418 4.45455V19H47.8182V4.45455H49.9418ZM54.9222 4.45455V19H52.7987V4.45455H54.9222ZM62.4808 19.2202C61.406 19.2202 60.4804 18.9905 59.7038 18.5312C58.9321 18.0672 58.3355 17.4162 57.9141 16.5781C57.4974 15.7353 57.2891 14.7481 57.2891 13.6165C57.2891 12.4991 57.4974 11.5142 57.9141 10.6619C58.3355 9.80966 58.9226 9.14441 59.6754 8.66619C60.433 8.18797 61.3184 7.94886 62.3317 7.94886C62.9472 7.94886 63.5438 8.05066 64.1214 8.25426C64.6991 8.45786 65.2176 8.77746 65.6768 9.21307C66.1361 9.64867 66.4983 10.2145 66.7635 10.9105C67.0286 11.6018 67.1612 12.4422 67.1612 13.4318V14.1847H58.4893V12.5938H65.0803C65.0803 12.035 64.9666 11.5402 64.7393 11.1094C64.5121 10.6738 64.1925 10.3305 63.7805 10.0795C63.3733 9.8286 62.8951 9.70312 62.3459 9.70312C61.7493 9.70312 61.2285 9.84991 60.7834 10.1435C60.343 10.4323 60.0021 10.8111 59.7607 11.2798C59.5239 11.7438 59.4055 12.2481 59.4055 12.7926V14.0355C59.4055 14.7647 59.5334 15.3849 59.7891 15.8963C60.0495 16.4077 60.4117 16.7983 60.8757 17.0682C61.3397 17.3333 61.8819 17.4659 62.5021 17.4659C62.9046 17.4659 63.2715 17.4091 63.603 17.2955C63.9344 17.1771 64.2209 17.0019 64.4624 16.7699C64.7038 16.5379 64.8885 16.2514 65.0163 15.9105L67.0263 16.2727C66.8653 16.8646 66.5765 17.383 66.1598 17.8281C65.7479 18.2685 65.2294 18.6117 64.6044 18.858C63.9841 19.0994 63.2763 19.2202 62.4808 19.2202ZM74.6097 8.09091V9.79545H68.6509V8.09091H74.6097ZM70.2489 5.47727H72.3725V15.7969C72.3725 16.2088 72.4341 16.5189 72.5572 16.7273C72.6803 16.9309 72.8389 17.0705 73.033 17.1463C73.2319 17.2173 73.4473 17.2528 73.6793 17.2528C73.8498 17.2528 73.9989 17.241 74.1268 17.2173C74.2546 17.1937 74.354 17.1747 74.4251 17.1605L74.8086 18.9148C74.6855 18.9621 74.5103 19.0095 74.283 19.0568C74.0558 19.1089 73.7717 19.1373 73.4308 19.142C72.872 19.1515 72.3512 19.0521 71.8683 18.8438C71.3853 18.6354 70.9947 18.3134 70.6964 17.8778C70.3981 17.4422 70.2489 16.8954 70.2489 16.2372V5.47727Z" fill="white"/>
<path d="M31.9276 35V24.0909H33.9801V25.8239H34.0938C34.2926 25.2367 34.643 24.7751 35.1449 24.4389C35.6515 24.098 36.2244 23.9276 36.8636 23.9276C36.9962 23.9276 37.1525 23.9323 37.3324 23.9418C37.517 23.9512 37.6615 23.9631 37.7656 23.9773V26.0085C37.6804 25.9848 37.5289 25.9588 37.3111 25.9304C37.0933 25.8973 36.8755 25.8807 36.6577 25.8807C36.1558 25.8807 35.7083 25.9872 35.3153 26.2003C34.9271 26.4086 34.6193 26.6998 34.392 27.0739C34.1648 27.4432 34.0511 27.8646 34.0511 28.3381V35H31.9276ZM43.9144 35.2202C42.8396 35.2202 41.9139 34.9905 41.1374 34.5312C40.3656 34.0672 39.7691 33.4162 39.3477 32.5781C38.931 31.7353 38.7227 30.7481 38.7227 29.6165C38.7227 28.4991 38.931 27.5142 39.3477 26.6619C39.7691 25.8097 40.3562 25.1444 41.109 24.6662C41.8666 24.188 42.752 23.9489 43.7653 23.9489C44.3808 23.9489 44.9774 24.0507 45.555 24.2543C46.1327 24.4579 46.6512 24.7775 47.1104 25.2131C47.5697 25.6487 47.9319 26.2145 48.1971 26.9105C48.4622 27.6018 48.5948 28.4422 48.5948 29.4318V30.1847H39.9229V28.5938H46.5138C46.5138 28.035 46.4002 27.5402 46.1729 27.1094C45.9457 26.6738 45.6261 26.3305 45.2141 26.0795C44.8069 25.8286 44.3287 25.7031 43.7795 25.7031C43.1829 25.7031 42.6621 25.8499 42.217 26.1435C41.7766 26.4323 41.4357 26.8111 41.1942 27.2798C40.9575 27.7438 40.8391 28.2481 40.8391 28.7926V30.0355C40.8391 30.7647 40.967 31.3849 41.2227 31.8963C41.4831 32.4077 41.8453 32.7983 42.3093 33.0682C42.7733 33.3333 43.3155 33.4659 43.9357 33.4659C44.3382 33.4659 44.7051 33.4091 45.0366 33.2955C45.368 33.1771 45.6545 33.0019 45.896 32.7699C46.1374 32.5379 46.3221 32.2514 46.4499 31.9105L48.4599 32.2727C48.2989 32.8646 48.0101 33.383 47.5934 33.8281C47.1815 34.2685 46.663 34.6117 46.038 34.858C45.4177 35.0994 44.7099 35.2202 43.9144 35.2202ZM55.5462 35.2202C54.4903 35.2202 53.5812 34.9811 52.8189 34.5028C52.0613 34.0199 51.4789 33.3546 51.0717 32.5071C50.6645 31.6596 50.4609 30.6889 50.4609 29.5952C50.4609 28.4872 50.6693 27.5095 51.0859 26.6619C51.5026 25.8097 52.0897 25.1444 52.8473 24.6662C53.6049 24.188 54.4974 23.9489 55.5249 23.9489C56.3535 23.9489 57.0921 24.1027 57.7408 24.4105C58.3894 24.7135 58.9126 25.1397 59.3104 25.6889C59.7128 26.2382 59.9519 26.8797 60.0277 27.6136H57.9609C57.8473 27.1023 57.5869 26.6619 57.1797 26.2926C56.7772 25.9233 56.2375 25.7386 55.5604 25.7386C54.9685 25.7386 54.45 25.8949 54.005 26.2074C53.5646 26.5152 53.2214 26.9555 52.9751 27.5284C52.7289 28.0966 52.6058 28.7689 52.6058 29.5455C52.6058 30.3409 52.7266 31.0275 52.968 31.6051C53.2095 32.1828 53.5504 32.6302 53.9908 32.9474C54.4358 33.2647 54.959 33.4233 55.5604 33.4233C55.9628 33.4233 56.3274 33.3499 56.6541 33.2031C56.9856 33.0516 57.2625 32.8362 57.4851 32.5568C57.7124 32.2775 57.871 31.9413 57.9609 31.5483H60.0277C59.9519 32.2538 59.7223 32.8835 59.3388 33.4375C58.9553 33.9915 58.4415 34.4271 57.7976 34.7443C57.1584 35.0616 56.4079 35.2202 55.5462 35.2202ZM65.4734 35.2415C64.7821 35.2415 64.1571 35.1136 63.5984 34.858C63.0397 34.5975 62.5969 34.2211 62.2702 33.7287C61.9483 33.2363 61.7873 32.6326 61.7873 31.9176C61.7873 31.3021 61.9057 30.7955 62.1424 30.3977C62.3791 30 62.6987 29.6851 63.1012 29.4531C63.5037 29.2211 63.9535 29.0459 64.4506 28.9276C64.9478 28.8092 65.4544 28.7192 65.9705 28.6577C66.6239 28.5819 67.1542 28.5204 67.5614 28.473C67.9686 28.4209 68.2646 28.3381 68.4492 28.2244C68.6339 28.1108 68.7262 27.9261 68.7262 27.6705V27.6207C68.7262 27.0005 68.551 26.5199 68.2006 26.179C67.855 25.8381 67.3389 25.6676 66.6523 25.6676C65.9374 25.6676 65.3739 25.8262 64.962 26.1435C64.5548 26.456 64.2731 26.804 64.1168 27.1875L62.1211 26.733C62.3578 26.0701 62.7035 25.535 63.158 25.1278C63.6173 24.7159 64.1452 24.4176 64.7418 24.233C65.3384 24.0436 65.9658 23.9489 66.6239 23.9489C67.0595 23.9489 67.5212 24.0009 68.0089 24.1051C68.5013 24.2045 68.9606 24.3892 69.3867 24.6591C69.8176 24.929 70.1703 25.3149 70.445 25.8168C70.7196 26.3139 70.8569 26.9602 70.8569 27.7557V35H68.783V33.5085H68.6978C68.5605 33.7831 68.3545 34.053 68.0799 34.3182C67.8053 34.5833 67.4525 34.8035 67.0217 34.9787C66.5908 35.1539 66.0747 35.2415 65.4734 35.2415ZM65.935 33.5369C66.5221 33.5369 67.024 33.4209 67.4407 33.1889C67.8621 32.9569 68.1817 32.6539 68.3995 32.2798C68.622 31.901 68.7333 31.4962 68.7333 31.0653V29.6591C68.6576 29.7348 68.5108 29.8059 68.293 29.8722C68.0799 29.9337 67.8361 29.9882 67.5614 30.0355C67.2868 30.0781 67.0193 30.1184 66.7589 30.1562C66.4985 30.1894 66.2807 30.2178 66.1055 30.2415C65.6935 30.2936 65.3171 30.3812 64.9762 30.5043C64.64 30.6274 64.3701 30.8049 64.1665 31.0369C63.9677 31.2642 63.8683 31.5672 63.8683 31.946C63.8683 32.4716 64.0624 32.8693 64.4506 33.1392C64.8389 33.4044 65.3337 33.5369 65.935 33.5369ZM73.6854 39.0909V24.0909H75.7592V25.8594H75.9368C76.0599 25.6321 76.2375 25.3693 76.4695 25.071C76.7015 24.7727 77.0234 24.5123 77.4354 24.2898C77.8473 24.0625 78.3918 23.9489 79.0689 23.9489C79.9496 23.9489 80.7356 24.1714 81.4268 24.6165C82.1181 25.0616 82.6603 25.7031 83.0533 26.5412C83.451 27.3793 83.6499 28.3878 83.6499 29.5668C83.6499 30.7457 83.4534 31.7566 83.0604 32.5994C82.6674 33.4375 82.1276 34.0838 81.4411 34.5384C80.7545 34.9882 79.9709 35.2131 79.0902 35.2131C78.4273 35.2131 77.8852 35.1018 77.4638 34.8793C77.0471 34.6567 76.7204 34.3963 76.4837 34.098C76.2469 33.7997 76.0646 33.5346 75.9368 33.3026H75.8089V39.0909H73.6854ZM75.7663 29.5455C75.7663 30.3125 75.8776 30.9848 76.1001 31.5625C76.3227 32.1402 76.6446 32.5923 77.0661 32.919C77.4875 33.241 78.0036 33.402 78.6143 33.402C79.2488 33.402 79.7791 33.2339 80.2053 32.8977C80.6314 32.5568 80.9534 32.0952 81.1712 31.5128C81.3937 30.9304 81.505 30.2746 81.505 29.5455C81.505 28.8258 81.3961 28.1795 81.1783 27.6065C80.9652 27.0336 80.6432 26.5814 80.2124 26.25C79.7862 25.9186 79.2536 25.7528 78.6143 25.7528C77.9988 25.7528 77.478 25.9115 77.0518 26.2287C76.6304 26.5459 76.3108 26.9886 76.093 27.5568C75.8752 28.125 75.7663 28.7879 75.7663 29.5455Z" fill="white"/>
<path d="M102.5 13.5H103V13H102.5V13.5ZM102.5 29.5V30H103V29.5H102.5ZM90.1464 29.1464C89.9512 29.3417 89.9512 29.6583 90.1464 29.8536L93.3284 33.0355C93.5237 33.2308 93.8403 33.2308 94.0355 33.0355C94.2308 32.8403 94.2308 32.5237 94.0355 32.3284L91.2071 29.5L94.0355 26.6716C94.2308 26.4763 94.2308 26.1597 94.0355 25.9645C93.8403 25.7692 93.5237 25.7692 93.3284 25.9645L90.1464 29.1464ZM78.5 14H102.5V13H78.5V14ZM102 13.5V29.5H103V13.5H102ZM102.5 29H90.5V30H102.5V29Z" fill="white"/>
<path d="M1 13.5L1 13L0.5 13L0.5 13.5L1 13.5ZM13.8536 13.8536C14.0488 13.6583 14.0488 13.3417 13.8536 13.1464L10.6716 9.96447C10.4763 9.7692 10.1597 9.7692 9.96447 9.96447C9.7692 10.1597 9.7692 10.4763 9.96447 10.6716L12.7929 13.5L9.96447 16.3284C9.7692 16.5237 9.7692 16.8403 9.96447 17.0355C10.1597 17.2308 10.4763 17.2308 10.6716 17.0355L13.8536 13.8536ZM1 29.5L0.5 29.5L0.5 30L1 30L1 29.5ZM1 14L13.5 14L13.5 13L1 13L1 14ZM25.5 29L1 29L1 30L25.5 30L25.5 29ZM1.5 29.5L1.5 13.5L0.5 13.5L0.5 29.5L1.5 29.5Z" fill="white"/>
</svg>
