<svg width="35" height="35" viewBox="0 0 35 35" fill="none" xmlns="http://www.w3.org/2000/svg">
<path d="M2.9165 32.0833H32.0832" stroke="black" stroke-width="1.5" stroke-miterlimit="10" stroke-linecap="round" stroke-linejoin="round"/>
<path d="M21.8896 32.0688L4.3896 32.098L4.375 10.3105C4.375 9.33338 4.87085 8.42916 5.67294 7.88958L11.5063 3.99585C12.4834 3.3396 13.7666 3.3396 14.7437 3.99585L20.5771 7.88958C21.3937 8.42916 21.875 9.33338 21.875 10.3105L21.8896 32.0688Z" stroke="black" stroke-width="1.5" stroke-miterlimit="10" stroke-linecap="round" stroke-linejoin="round"/>
<path d="M29.1377 32.0979V26.25" stroke="black" stroke-width="1.5" stroke-miterlimit="10" stroke-linecap="round" stroke-linejoin="round"/>
<path d="M29.1667 17.5C27.5625 17.5 26.25 18.8125 26.25 20.4167V23.3333C26.25 24.9375 27.5625 26.25 29.1667 26.25C30.7708 26.25 32.0833 24.9375 32.0833 23.3333V20.4167C32.0833 18.8125 30.7708 17.5 29.1667 17.5Z" stroke="black" stroke-width="1.5" stroke-miterlimit="10" stroke-linecap="round" stroke-linejoin="round"/>
<path d="M4.375 20.4167H21.875" stroke="black" stroke-width="1.5" stroke-miterlimit="10" stroke-linecap="round" stroke-linejoin="round"/>
<path d="M13.125 32.0832V26.6145" stroke="black" stroke-width="1.5" stroke-miterlimit="10" stroke-linecap="round" stroke-linejoin="round"/>
<path d="M13.125 15.3125C14.3331 15.3125 15.3125 14.3331 15.3125 13.125C15.3125 11.9169 14.3331 10.9375 13.125 10.9375C11.9169 10.9375 10.9375 11.9169 10.9375 13.125C10.9375 14.3331 11.9169 15.3125 13.125 15.3125Z" stroke="black" stroke-width="1.5" stroke-miterlimit="10" stroke-linecap="round" stroke-linejoin="round"/>
</svg>
