<svg width="35" height="35" viewBox="0 0 35 35" fill="none" xmlns="http://www.w3.org/2000/svg">
<path d="M22.6189 4.1272H12.3814C8.75016 4.1272 7.94808 5.93553 7.48141 8.1522L5.8335 16.0418H29.1668L27.5189 8.1522C27.0522 5.93553 26.2502 4.1272 22.6189 4.1272Z" stroke="black" stroke-width="1.5" stroke-linecap="round" stroke-linejoin="round"/>
<path d="M32.0687 28.9042C32.2291 30.6105 30.8583 32.0834 29.1083 32.0834H26.3666C24.7916 32.0834 24.5729 31.4126 24.2958 30.5813L24.0041 29.7063C23.5958 28.5105 23.3333 27.7084 21.2333 27.7084H13.7666C11.6666 27.7084 11.3604 28.6126 10.9958 29.7063L10.7041 30.5813C10.4271 31.4126 10.2083 32.0834 8.63332 32.0834H5.89165C4.14165 32.0834 2.77082 30.6105 2.93123 28.9042L3.7479 20.023C3.95207 17.8355 4.37498 16.0417 8.19581 16.0417H26.8041C30.625 16.0417 31.0479 17.8355 31.2521 20.023L32.0687 28.9042Z" stroke="black" stroke-width="1.5" stroke-linecap="round" stroke-linejoin="round"/>
<path d="M5.83333 11.6667H4.375" stroke="black" stroke-width="1.5" stroke-linecap="round" stroke-linejoin="round"/>
<path d="M30.6248 11.6667H29.1665" stroke="black" stroke-width="1.5" stroke-linecap="round" stroke-linejoin="round"/>
<path d="M17.5 4.375V7.29167" stroke="black" stroke-width="1.5" stroke-linecap="round" stroke-linejoin="round"/>
<path d="M15.3125 7.29175H19.6875" stroke="black" stroke-width="1.5" stroke-linecap="round" stroke-linejoin="round"/>
<path d="M8.75 21.875H13.125" stroke="black" stroke-width="1.5" stroke-linecap="round" stroke-linejoin="round"/>
<path d="M21.875 21.875H26.25" stroke="black" stroke-width="1.5" stroke-linecap="round" stroke-linejoin="round"/>
</svg>
