<svg width="35" height="35" viewBox="0 0 35 35" fill="none" xmlns="http://www.w3.org/2000/svg">
<path d="M13.1248 32.0834H21.8748C29.1665 32.0834 32.0832 29.1667 32.0832 21.8751V13.1251C32.0832 5.83341 29.1665 2.91675 21.8748 2.91675H13.1248C5.83317 2.91675 2.9165 5.83341 2.9165 13.1251V21.8751C2.9165 29.1667 5.83317 32.0834 13.1248 32.0834Z" stroke="black" stroke-width="1.5" stroke-linecap="round" stroke-linejoin="round"/>
<path d="M10.2085 12.0312C11.6668 13.4896 14.0439 13.4896 15.5168 12.0312" stroke="black" stroke-width="1.5" stroke-miterlimit="10" stroke-linecap="round" stroke-linejoin="round"/>
<path d="M19.4834 12.0312C20.9417 13.4896 23.3188 13.4896 24.7917 12.0312" stroke="black" stroke-width="1.5" stroke-miterlimit="10" stroke-linecap="round" stroke-linejoin="round"/>
<path d="M12.25 18.9583H22.75C23.4792 18.9583 24.0625 19.5416 24.0625 20.2708C24.0625 23.902 21.1313 26.8333 17.5 26.8333C13.8688 26.8333 10.9375 23.902 10.9375 20.2708C10.9375 19.5416 11.5208 18.9583 12.25 18.9583Z" stroke="black" stroke-width="1.5" stroke-miterlimit="10" stroke-linecap="round" stroke-linejoin="round"/>
</svg>
