<svg width="35" height="35" viewBox="0 0 35 35" fill="none" xmlns="http://www.w3.org/2000/svg">
<path d="M32.0835 8.75008V12.2792C32.0835 14.5834 30.6252 16.0417 28.321 16.0417H23.3335V5.848C23.3335 4.22925 24.6606 2.91675 26.2793 2.91675C27.8689 2.93133 29.3272 3.573 30.3772 4.623C31.4272 5.68758 32.0835 7.14591 32.0835 8.75008Z" stroke="black" stroke-width="1.5" stroke-miterlimit="10" stroke-linecap="round" stroke-linejoin="round"/>
<path d="M2.9165 10.2084V30.6251C2.9165 31.8355 4.28734 32.5209 5.24984 31.7918L7.74359 29.9251C8.32692 29.4876 9.14359 29.5459 9.66859 30.0709L12.0894 32.5063C12.6582 33.0751 13.5915 33.0751 14.1603 32.5063L16.6103 30.0563C17.1207 29.5459 17.9373 29.4876 18.5061 29.9251L20.9998 31.7918C21.9623 32.5063 23.3332 31.8209 23.3332 30.6251V5.83341C23.3332 4.22925 24.6457 2.91675 26.2498 2.91675H10.2082H8.74984C4.37484 2.91675 2.9165 5.52716 2.9165 8.75008V10.2084Z" stroke="black" stroke-width="1.5" stroke-miterlimit="10" stroke-linecap="round" stroke-linejoin="round"/>
<path d="M9.14355 20.0228L17.1061 12.0603" stroke="black" stroke-width="1.5" stroke-linecap="round" stroke-linejoin="round"/>
<path d="M17.3901 19.6874H17.4032" stroke="black" stroke-width="1.5" stroke-linecap="round" stroke-linejoin="round"/>
<path d="M9.03414 12.3959H9.04724" stroke="black" stroke-width="1.5" stroke-linecap="round" stroke-linejoin="round"/>
</svg>
