<svg width="35" height="35" viewBox="0 0 35 35" fill="none" xmlns="http://www.w3.org/2000/svg">
<path d="M12.848 2.91675L7.56885 8.2105" stroke="black" stroke-width="1.5" stroke-miterlimit="10" stroke-linecap="round" stroke-linejoin="round"/>
<path d="M22.1519 2.91675L27.431 8.2105" stroke="black" stroke-width="1.5" stroke-miterlimit="10" stroke-linecap="round" stroke-linejoin="round"/>
<path d="M2.9165 11.4479C2.9165 8.75 4.36025 8.53125 6.154 8.53125H28.8457C30.6394 8.53125 32.0832 8.75 32.0832 11.4479C32.0832 14.5833 30.6394 14.3646 28.8457 14.3646H6.154C4.36025 14.3646 2.9165 14.5833 2.9165 11.4479Z" stroke="black" stroke-width="1.5"/>
<path d="M14.2334 20.4167V25.5938" stroke="black" stroke-width="1.5" stroke-linecap="round"/>
<path d="M20.9419 20.4167V25.5938" stroke="black" stroke-width="1.5" stroke-linecap="round"/>
<path d="M5.104 14.5833L7.16025 27.1833C7.62692 30.0124 8.74984 32.0833 12.9207 32.0833H21.7144C26.2498 32.0833 26.9207 30.0999 27.4457 27.3583L29.8957 14.5833" stroke="black" stroke-width="1.5" stroke-linecap="round"/>
</svg>
