<svg width="33" height="33" viewBox="0 0 33 33" fill="none" xmlns="http://www.w3.org/2000/svg">
<g clip-path="url(#clip0_93_400)">
<path d="M29.9639 25.7174C29.4649 26.8703 28.8742 27.9316 28.1897 28.9073C27.2568 30.2374 26.4929 31.1581 25.9043 31.6694C24.9917 32.5087 24.014 32.9385 22.9669 32.9629C22.2153 32.9629 21.3088 32.749 20.2537 32.3151C19.1951 31.8833 18.2222 31.6694 17.3327 31.6694C16.3997 31.6694 15.3992 31.8833 14.329 32.3151C13.2571 32.749 12.3936 32.9751 11.7335 32.9975C10.7294 33.0403 9.72867 32.5983 8.72973 31.6694C8.09216 31.1133 7.29469 30.16 6.33935 28.8095C5.31434 27.3673 4.47165 25.695 3.81147 23.7884C3.10443 21.729 2.75 19.7348 2.75 17.8041C2.75 15.5926 3.22787 13.6852 4.18505 12.0868C4.9373 10.8028 5.93806 9.79006 7.1906 9.04656C8.44313 8.30307 9.7965 7.92419 11.254 7.89995C12.0514 7.89995 13.0972 8.14663 14.3968 8.63143C15.6927 9.11786 16.5248 9.36454 16.8896 9.36454C17.1624 9.36454 18.0868 9.0761 19.6538 8.50106C21.1357 7.96778 22.3864 7.74697 23.411 7.83395C26.1874 8.05802 28.2733 9.15249 29.6604 11.1243C27.1774 12.6288 25.9491 14.736 25.9735 17.4393C25.9959 19.5449 26.7598 21.2971 28.261 22.6884C28.9414 23.3341 29.7012 23.8332 30.5465 24.1876C30.3632 24.7193 30.1697 25.2285 29.9639 25.7174V25.7174ZM23.5964 0.660539C23.5964 2.31092 22.9934 3.85187 21.7916 5.27816C20.3413 6.97374 18.587 7.95352 16.6847 7.79892C16.6605 7.60092 16.6464 7.39254 16.6464 7.17357C16.6464 5.5892 17.3361 3.89363 18.561 2.50726C19.1725 1.80532 19.9502 1.22166 20.8933 0.756072C21.8344 0.297427 22.7245 0.0437859 23.5617 0.000350952C23.5862 0.220981 23.5964 0.441624 23.5964 0.660518V0.660539Z" fill="black"/>
</g>
<defs>
<clipPath id="clip0_93_400">
<rect width="33" height="33" fill="white"/>
</clipPath>
</defs>
</svg>
