<svg width="35" height="35" viewBox="0 0 35 35" fill="none" xmlns="http://www.w3.org/2000/svg">
<path d="M2.9165 32.0834H32.0832" stroke="black" stroke-width="1.5" stroke-miterlimit="10" stroke-linecap="round" stroke-linejoin="round"/>
<path d="M21.8896 32.0686L4.3896 32.0978L4.375 10.3103C4.375 9.33325 4.87085 8.42904 5.67294 7.88945L11.5063 3.99573C12.4834 3.33948 13.7666 3.33948 14.7437 3.99573L20.5771 7.88945C21.3937 8.42904 21.875 9.33325 21.875 10.3103L21.8896 32.0686Z" stroke="black" stroke-width="1.5" stroke-miterlimit="10" stroke-linecap="round" stroke-linejoin="round"/>
<path d="M29.1377 32.0979V26.25" stroke="black" stroke-width="1.5" stroke-miterlimit="10" stroke-linecap="round" stroke-linejoin="round"/>
<path d="M29.1667 17.5C27.5625 17.5 26.25 18.8125 26.25 20.4167V23.3333C26.25 24.9375 27.5625 26.25 29.1667 26.25C30.7708 26.25 32.0833 24.9375 32.0833 23.3333V20.4167C32.0833 18.8125 30.7708 17.5 29.1667 17.5Z" stroke="black" stroke-width="1.5" stroke-miterlimit="10" stroke-linecap="round" stroke-linejoin="round"/>
<path d="M4.375 20.4166H21.875" stroke="black" stroke-width="1.5" stroke-miterlimit="10" stroke-linecap="round" stroke-linejoin="round"/>
<path d="M13.125 32.0834V26.6146" stroke="black" stroke-width="1.5" stroke-miterlimit="10" stroke-linecap="round" stroke-linejoin="round"/>
<path d="M13.125 15.3125C14.3331 15.3125 15.3125 14.3331 15.3125 13.125C15.3125 11.9169 14.3331 10.9375 13.125 10.9375C11.9169 10.9375 10.9375 11.9169 10.9375 13.125C10.9375 14.3331 11.9169 15.3125 13.125 15.3125Z" stroke="black" stroke-width="1.5" stroke-miterlimit="10" stroke-linecap="round" stroke-linejoin="round"/>
</svg>
