<svg width="35" height="35" viewBox="0 0 35 35" fill="none" xmlns="http://www.w3.org/2000/svg">
<path d="M22.6189 4.12708H12.3814C8.75016 4.12708 7.94808 5.93541 7.48141 8.15208L5.8335 16.0417H29.1668L27.5189 8.15208C27.0522 5.93541 26.2502 4.12708 22.6189 4.12708Z" stroke="black" stroke-width="1.5" stroke-linecap="round" stroke-linejoin="round"/>
<path d="M32.0687 28.9041C32.2291 30.6104 30.8583 32.0833 29.1083 32.0833H26.3666C24.7916 32.0833 24.5729 31.4125 24.2958 30.5812L24.0041 29.7062C23.5958 28.5104 23.3333 27.7083 21.2333 27.7083H13.7666C11.6666 27.7083 11.3604 28.6125 10.9958 29.7062L10.7041 30.5812C10.4271 31.4125 10.2083 32.0833 8.63332 32.0833H5.89165C4.14165 32.0833 2.77082 30.6104 2.93123 28.9041L3.7479 20.0229C3.95207 17.8354 4.37498 16.0416 8.19581 16.0416H26.8041C30.625 16.0416 31.0479 17.8354 31.2521 20.0229L32.0687 28.9041Z" stroke="black" stroke-width="1.5" stroke-linecap="round" stroke-linejoin="round"/>
<path d="M5.83333 11.6666H4.375" stroke="black" stroke-width="1.5" stroke-linecap="round" stroke-linejoin="round"/>
<path d="M30.6248 11.6666H29.1665" stroke="black" stroke-width="1.5" stroke-linecap="round" stroke-linejoin="round"/>
<path d="M17.5 4.375V7.29167" stroke="black" stroke-width="1.5" stroke-linecap="round" stroke-linejoin="round"/>
<path d="M15.3125 7.29163H19.6875" stroke="black" stroke-width="1.5" stroke-linecap="round" stroke-linejoin="round"/>
<path d="M8.75 21.875H13.125" stroke="black" stroke-width="1.5" stroke-linecap="round" stroke-linejoin="round"/>
<path d="M21.875 21.875H26.25" stroke="black" stroke-width="1.5" stroke-linecap="round" stroke-linejoin="round"/>
</svg>
