<svg width="41" height="41" viewBox="0 0 41 41" fill="none" xmlns="http://www.w3.org/2000/svg">
<g clip-path="url(#clip0_105_1502)">
<path d="M40.7887 11.8298L35.1884 1.12109C34.8617 0.497118 34.0161 -0.0141011 33.3126 -0.0141011H20.4233C20.4092 -0.0153823 20.3951 -0.0179448 20.381 -0.0192261C20.3695 -0.0192261 20.3579 -0.0153823 20.3464 -0.0141011H7.68765C6.98296 -0.0141011 6.13605 0.495836 5.80421 1.11724L0.219241 11.6196C-0.112602 12.2423 -0.0459772 13.2186 0.364023 13.7927L19.5841 40.5849C19.7903 40.8719 20.0645 41.0179 20.3374 41.0179C20.6091 41.0179 20.8807 40.877 21.0895 40.5938L40.6247 13.9976C41.0411 13.4288 41.1155 12.455 40.7887 11.8311V11.8298ZM37.7317 11.5159H30.8667L33.6163 3.64387L37.7317 11.5159ZM23.0357 2.54968H31.2819L28.7232 9.8733L23.0357 2.54968ZM26.7552 11.5159H14.8383L20.4707 3.42349L26.7552 11.5159ZM12.5679 10.2936L9.99774 2.54968H17.9581L12.5679 10.2936ZM27.2562 14.0784L20.3682 33.7994L13.8236 14.0784H27.2562ZM17.4943 33.2753L3.72346 14.0784H11.124L17.4943 33.2753ZM29.9711 14.0784H37.3857L23.2536 33.3202L29.9711 14.0784ZM7.54671 3.29921L10.2732 11.5159H3.17637L7.54671 3.29921Z" fill="white"/>
</g>
<defs>
<clipPath id="clip0_105_1502">
<rect width="41" height="41" fill="white"/>
</clipPath>
</defs>
</svg>
