<svg width="35" height="35" viewBox="0 0 35 35" fill="none" xmlns="http://www.w3.org/2000/svg">
<path d="M13.1248 32.0833H21.8748C29.1665 32.0833 32.0832 29.1666 32.0832 21.875V13.125C32.0832 5.83329 29.1665 2.91663 21.8748 2.91663H13.1248C5.83317 2.91663 2.9165 5.83329 2.9165 13.125V21.875C2.9165 29.1666 5.83317 32.0833 13.1248 32.0833Z" stroke="black" stroke-width="1.5" stroke-linecap="round" stroke-linejoin="round"/>
<path d="M10.2085 12.0312C11.6668 13.4896 14.0439 13.4896 15.5168 12.0312" stroke="black" stroke-width="1.5" stroke-miterlimit="10" stroke-linecap="round" stroke-linejoin="round"/>
<path d="M19.4834 12.0312C20.9417 13.4896 23.3188 13.4896 24.7917 12.0312" stroke="black" stroke-width="1.5" stroke-miterlimit="10" stroke-linecap="round" stroke-linejoin="round"/>
<path d="M12.25 18.9584H22.75C23.4792 18.9584 24.0625 19.5417 24.0625 20.2709C24.0625 23.9021 21.1313 26.8334 17.5 26.8334C13.8688 26.8334 10.9375 23.9021 10.9375 20.2709C10.9375 19.5417 11.5208 18.9584 12.25 18.9584Z" stroke="black" stroke-width="1.5" stroke-miterlimit="10" stroke-linecap="round" stroke-linejoin="round"/>
</svg>
