<svg width="35" height="35" viewBox="0 0 35 35" fill="none" xmlns="http://www.w3.org/2000/svg">
<path d="M17.5 33.1917C15.9105 33.1917 14.3355 32.725 13.0959 31.8063L6.82504 27.125C5.16254 25.8854 3.86462 23.2896 3.86462 21.2333V10.3833C3.86462 8.13751 5.51254 5.74584 7.62712 4.95834L14.9042 2.23126C16.348 1.69167 18.623 1.69167 20.0667 2.23126L27.3438 4.95834C29.4584 5.74584 31.1063 8.13751 31.1063 10.3833V21.2188C31.1063 23.2896 29.8084 25.8708 28.1459 27.1104L21.875 31.7917C20.6646 32.725 19.0896 33.1917 17.5 33.1917ZM15.6771 4.28751L8.40004 7.01459C7.16046 7.48126 6.06671 9.05626 6.06671 10.3979V21.2333C6.06671 22.6188 7.04379 24.5583 8.13754 25.375L14.4084 30.0563C16.0855 31.3104 18.9146 31.3104 20.6063 30.0563L26.8771 25.375C27.9855 24.5438 28.948 22.6188 28.948 21.2333V10.3833C28.948 9.05626 27.8542 7.48126 26.6146 7.00001L19.3375 4.27292C18.3459 3.92292 16.6542 3.92292 15.6771 4.28751Z" fill="#AC0101"/>
<path d="M20.6354 20.6938C20.3583 20.6938 20.0813 20.5917 19.8625 20.3729L13.6646 14.175C13.2417 13.7521 13.2417 13.0521 13.6646 12.6292C14.0875 12.2063 14.7875 12.2063 15.2104 12.6292L21.4084 18.8271C21.8313 19.25 21.8313 19.95 21.4084 20.3729C21.1896 20.5771 20.9125 20.6938 20.6354 20.6938Z" fill="#AC0101"/>
<path d="M14.3646 20.7521C14.0876 20.7521 13.8105 20.65 13.5917 20.4313C13.1688 20.0083 13.1688 19.3083 13.5917 18.8854L19.7896 12.6875C20.2126 12.2646 20.9126 12.2646 21.3355 12.6875C21.7584 13.1104 21.7584 13.8104 21.3355 14.2333L15.1376 20.4313C14.9334 20.65 14.6417 20.7521 14.3646 20.7521Z" fill="#AC0101"/>
</svg>
