<svg width="35" height="35" viewBox="0 0 35 35" fill="none" xmlns="http://www.w3.org/2000/svg">
<path d="M18.9018 26.6553H4.76518C3.89811 26.6553 3.19482 27.2154 3.19482 27.9063V27.943C3.19482 28.6339 3.89783 29.1935 4.76518 29.1935H18.9018C19.7694 29.1935 20.4727 28.6339 20.4727 27.943V27.9063C20.4726 27.2154 19.7693 26.6553 18.9018 26.6553Z" fill="black"/>
<path d="M6.69162 19.4044C6.44252 19.4044 6.24072 19.6064 6.24072 19.8555C6.24072 20.1051 6.44252 20.3071 6.69162 20.3071C6.9412 20.3071 7.14348 20.1051 7.14348 19.8555C7.14355 19.6064 6.9412 19.4044 6.69162 19.4044Z" fill="black"/>
<path d="M10.0767 19.4044C9.82734 19.4044 9.625 19.6064 9.625 19.8555C9.625 20.1051 9.82734 20.3071 10.0767 20.3071C10.3258 20.3071 10.5278 20.1051 10.5278 19.8555C10.5278 19.6064 10.3258 19.4044 10.0767 19.4044Z" fill="black"/>
<path d="M8.497 18.0505C8.2477 18.0505 8.0459 18.2521 8.0459 18.5016C8.0459 18.7512 8.2477 18.9532 8.497 18.9532C8.7461 18.9532 8.9481 18.7512 8.9481 18.5016C8.9481 18.2521 8.7461 18.0505 8.497 18.0505Z" fill="black"/>
<path d="M10.979 17.9379C10.979 18.187 11.1811 18.3885 11.4302 18.3885C11.6795 18.3885 11.8816 18.187 11.8816 17.9379C11.8816 17.6883 11.6795 17.4868 11.4302 17.4868C11.1811 17.4869 10.979 17.6883 10.979 17.9379Z" fill="black"/>
<path d="M13.1227 20.4198C13.3725 20.4198 13.5743 20.2178 13.5743 19.9682C13.5743 19.7191 13.3725 19.5171 13.1227 19.5171C12.8737 19.5171 12.6714 19.7191 12.6714 19.9682C12.6713 20.2178 12.8736 20.4198 13.1227 20.4198Z" fill="black"/>
<path d="M14.5898 18.9482C14.8389 18.9482 15.0407 18.7457 15.0407 18.4961C15.0407 18.247 14.8389 18.0449 14.5898 18.0449C14.3405 18.0449 14.1382 18.247 14.1382 18.4961C14.1382 18.7457 14.3405 18.9482 14.5898 18.9482Z" fill="black"/>
<path d="M16.8459 20.4198C17.095 20.4198 17.2973 20.2178 17.2973 19.9682C17.2973 19.7191 17.095 19.5171 16.8459 19.5171C16.5971 19.5171 16.3945 19.7191 16.3945 19.9682C16.3945 20.2178 16.5971 20.4198 16.8459 20.4198Z" fill="black"/>
<path d="M20.6154 24.9646C20.6637 24.9506 20.7192 24.9413 20.795 24.9413C21.106 24.9413 21.3584 24.6892 21.3584 24.3775C21.3584 24.066 21.106 23.8133 20.7947 23.8133C20.596 23.8133 20.4076 23.8438 20.2373 23.9001C20.0885 23.9497 19.9542 24.0184 19.8379 24.0959C19.6341 24.2318 19.4827 24.3894 19.3571 24.5315C19.2627 24.6385 19.1819 24.7382 19.1078 24.822C18.9977 24.9491 18.9034 25.0369 18.8192 25.0875C18.7765 25.1123 18.7362 25.1309 18.6884 25.1443C18.6409 25.1578 18.5846 25.1671 18.5096 25.1671C18.4225 25.1671 18.3608 25.1552 18.3078 25.1376C18.2616 25.1227 18.2207 25.102 18.1769 25.0731C18.1006 25.0235 18.0157 24.9419 17.918 24.8308C17.8448 24.7481 17.7648 24.6493 17.6715 24.5419C17.5317 24.3837 17.3604 24.2028 17.1183 24.0561C16.9979 23.9827 16.8605 23.9207 16.7093 23.8778C16.5587 23.8355 16.3954 23.8132 16.2246 23.8132C16.026 23.8132 15.8379 23.8432 15.6674 23.9001C15.5183 23.9496 15.3844 24.0183 15.2682 24.0958C15.0636 24.2317 14.9127 24.3894 14.7873 24.5314C14.6925 24.6384 14.6122 24.7381 14.5377 24.8219C14.4269 24.949 14.3339 25.0368 14.2494 25.0875C14.2065 25.1123 14.1662 25.1309 14.1187 25.1443C14.0712 25.1577 14.0146 25.167 13.9396 25.167C13.8523 25.167 13.7908 25.1551 13.7381 25.1376C13.6916 25.1221 13.6507 25.1015 13.6068 25.073C13.5312 25.0234 13.4464 24.9418 13.3485 24.8307C13.2748 24.748 13.1952 24.6493 13.102 24.5428C12.9623 24.3837 12.7904 24.2028 12.5491 24.0561C12.4284 23.9827 12.2913 23.9207 12.1399 23.8778C11.9892 23.8355 11.8257 23.8127 11.6552 23.8132C11.4566 23.8127 11.2682 23.8432 11.0982 23.9001C10.9494 23.9491 10.8153 24.0178 10.6985 24.0958C10.4947 24.2317 10.3436 24.3888 10.2174 24.5314C10.1234 24.6384 10.0433 24.7381 9.96908 24.8219C9.85827 24.949 9.76421 25.0368 9.68026 25.0875C9.63788 25.1123 9.59762 25.1309 9.54983 25.1443C9.5015 25.1577 9.44545 25.167 9.37053 25.167C9.28316 25.167 9.22171 25.1551 9.16873 25.1376C9.12272 25.1221 9.08164 25.1015 9.0383 25.0725C8.96201 25.0234 8.87752 24.9417 8.77936 24.8307C8.70566 24.7474 8.62609 24.6488 8.53285 24.5428C8.39306 24.3837 8.22127 24.2028 7.97941 24.0561C7.85951 23.9827 7.72184 23.9207 7.57117 23.8778C7.42003 23.8355 7.25679 23.8127 7.08596 23.8132C6.8873 23.8127 6.69945 23.8432 6.52869 23.9001C6.37987 23.9491 6.2463 24.0178 6.12975 24.0954C5.92535 24.2318 5.77476 24.3889 5.64843 24.5315C5.55409 24.6385 5.47377 24.7382 5.40015 24.822C5.28927 24.9491 5.19555 25.0369 5.11126 25.0875C5.0686 25.1123 5.02827 25.1309 4.98049 25.1443C4.93243 25.1578 4.87665 25.1666 4.80173 25.1671C4.71416 25.1666 4.65291 25.1552 4.59966 25.1376C4.55372 25.1221 4.51257 25.1015 4.46916 25.0726C4.39314 25.0229 4.30797 24.9423 4.21076 24.8308C4.13714 24.7475 4.05702 24.6489 3.96378 24.5424C3.82426 24.3838 3.6522 24.2029 3.41089 24.0561C3.29071 23.9827 3.15331 23.9207 3.0021 23.8778C2.8515 23.8355 2.68792 23.8127 2.51688 23.8132C2.20578 23.8132 1.95312 24.0659 1.95312 24.3775C1.95312 24.6891 2.20578 24.9412 2.51688 24.9412C2.60479 24.9412 2.66625 24.9537 2.71868 24.9707C2.76517 24.9867 2.80577 25.0069 2.84966 25.0359C2.9254 25.0854 3.01017 25.166 3.10833 25.2777C3.18147 25.3604 3.26159 25.4595 3.35456 25.566C3.49463 25.7247 3.66614 25.9055 3.90752 26.0528C4.0279 26.1256 4.16564 26.1876 4.31645 26.23C4.46711 26.2729 4.63042 26.2951 4.80166 26.2951C4.99983 26.2956 5.18789 26.2652 5.35845 26.2088C5.5072 26.1587 5.64132 26.0904 5.75739 26.0129C5.96172 25.877 6.11286 25.7184 6.23892 25.5768C6.33298 25.4699 6.41357 25.3706 6.48747 25.2858C6.59835 25.1593 6.69159 25.0714 6.77608 25.0207C6.81867 24.996 6.85873 24.9774 6.90706 24.9639C6.95464 24.9505 7.01042 24.9412 7.08616 24.9412C7.17318 24.9412 7.23478 24.9536 7.28769 24.9706C7.33362 24.9866 7.37471 25.0069 7.41839 25.0358C7.49468 25.0853 7.57938 25.1659 7.67706 25.2776C7.75021 25.3603 7.83025 25.4595 7.92356 25.566C8.06363 25.7246 8.23515 25.9054 8.47673 26.0527C8.59718 26.1261 8.73458 26.1876 8.88524 26.23C9.03639 26.2728 9.1997 26.295 9.37046 26.295C9.56863 26.2956 9.75724 26.2651 9.92725 26.2088C10.0766 26.1586 10.2104 26.0904 10.3267 26.0128C10.531 25.8769 10.6822 25.7183 10.8075 25.5767C10.9023 25.4698 10.9827 25.3705 11.0569 25.2858C11.1678 25.1592 11.2612 25.0713 11.3455 25.0207C11.3879 24.9959 11.4284 24.9773 11.4763 24.9639C11.5238 24.9505 11.5799 24.9411 11.6555 24.9411C11.7426 24.9411 11.8041 24.9535 11.8565 24.9706C11.903 24.9866 11.9441 25.0068 11.9878 25.0357C12.0635 25.0853 12.1484 25.1659 12.2463 25.2776C12.3198 25.3602 12.3999 25.4594 12.4928 25.5659C12.6328 25.7246 12.8044 25.9054 13.046 26.0526C13.1664 26.126 13.3039 26.1875 13.4547 26.2299C13.6059 26.2727 13.7689 26.295 13.9399 26.295C14.1381 26.2955 14.3264 26.265 14.4965 26.2087C14.6458 26.1585 14.7797 26.0903 14.8962 26.0128C15.1003 25.8769 15.2518 25.7183 15.3771 25.5766C15.4714 25.4697 15.552 25.3705 15.6259 25.2857C15.7365 25.1592 15.8306 25.0713 15.915 25.0206C15.9572 24.9959 15.9977 24.9773 16.0455 24.9638C16.0935 24.9504 16.1494 24.941 16.2248 24.941C16.3119 24.941 16.3731 24.9535 16.4263 24.9705C16.4723 24.9865 16.5137 25.0067 16.5568 25.0356C16.6333 25.0852 16.7177 25.1658 16.816 25.2775C16.8896 25.3601 16.9692 25.4599 17.0629 25.5658C17.2025 25.725 17.3742 25.9053 17.6156 26.0526C17.7359 26.126 17.8734 26.1874 18.0246 26.2298C18.1754 26.2727 18.339 26.2954 18.5098 26.2954C18.7082 26.2954 18.8968 26.265 19.0663 26.2086C19.2154 26.159 19.3497 26.0902 19.466 26.0127C19.6704 25.8768 19.8217 25.7182 19.9471 25.5766C20.0412 25.4697 20.122 25.3704 20.1956 25.2856C20.3065 25.1591 20.4002 25.0712 20.4845 25.0205C20.5271 24.9961 20.5671 24.9775 20.6154 24.9646Z" fill="black"/>
<path d="M33.3192 8.22329H28.2852L29.3417 3.36499L33.0405 1.21741L32.3338 0L28.0976 2.45964L26.8445 8.22329H15.5453L16.1352 15.9072C14.7992 15.4002 13.2903 15.1067 11.692 15.1067C9.20396 15.1078 6.93313 15.8147 5.19146 16.9406C4.3205 17.5044 3.58058 18.1741 3.01627 18.9239C2.57959 19.5042 2.24941 20.1346 2.05363 20.7975H2.01412L1.91568 21.385C1.91281 21.4031 1.91056 21.4139 1.90926 21.4197L1.90871 21.4227C1.90618 21.4289 1.90071 21.4444 1.89272 21.4713C1.88465 21.4977 1.87535 21.5338 1.8692 21.5684C1.85942 21.6206 1.85498 21.6676 1.85293 21.7095C1.85061 21.7519 1.84979 21.7917 1.84979 21.8382C1.85033 22.0639 1.88103 22.2856 1.95602 22.498C2.0118 22.6567 2.09369 22.8091 2.20122 22.9429C2.36139 23.1455 2.57863 23.301 2.81017 23.393C3.04272 23.4865 3.2869 23.5237 3.53314 23.5237H19.8503C20.0694 23.5237 20.2862 23.4943 20.4954 23.4224C20.6518 23.3681 20.8037 23.2891 20.9385 23.1842C21.1421 23.0271 21.3012 22.8111 21.3971 22.577C21.494 22.3413 21.5333 22.0918 21.5333 21.838C21.533 21.7724 21.5323 21.7202 21.5266 21.6556C21.5222 21.6081 21.5119 21.5476 21.4985 21.4974C21.4881 21.4597 21.4786 21.4339 21.4757 21.4246L21.4749 21.4221C21.4742 21.4189 21.4716 21.4091 21.4677 21.3848V21.3853C21.3207 20.5064 20.9311 19.6729 20.3679 18.9237C19.6785 18.0096 18.7303 17.2128 17.5994 16.5844L17.0657 9.63115H31.7991L30.1873 30.6204H21.1308C20.97 30.4417 20.7652 30.2897 20.5303 30.1905C20.2872 30.0867 20.0187 30.0381 19.7418 30.0386H3.646C3.31787 30.0377 3.00062 30.1068 2.72574 30.2531C2.51978 30.3616 2.34204 30.5109 2.20252 30.6804C1.99225 30.9352 1.86482 31.2271 1.7873 31.5232C1.71033 31.8203 1.68094 32.1258 1.68066 32.4348V32.6038C1.68039 33.2631 1.95014 33.8667 2.38265 34.2982C2.81386 34.7307 3.4174 35.0004 4.0768 34.9999H19.3071C19.9664 35.0005 20.5697 34.7307 21.0011 34.2982C21.4337 33.8667 21.7034 33.2632 21.7031 32.6038V32.4348C21.7031 32.2984 21.6972 32.1625 21.6845 32.0281H31.4909L33.3192 8.22329ZM17.4275 18.1219C18.1761 18.6061 18.7925 19.1719 19.2426 19.7703C19.6929 20.3691 19.9755 20.997 20.0792 21.6176V21.6182C20.0913 21.6905 20.1047 21.7525 20.12 21.8068C20.122 21.8125 20.1239 21.8181 20.1252 21.8238C20.1252 21.829 20.1257 21.8321 20.1257 21.8383C20.1257 21.9344 20.1118 21.9954 20.1004 22.0279C20.0914 22.0527 20.0847 22.0616 20.0813 22.0657C20.0756 22.0718 20.0767 22.0739 20.0464 22.0879C20.017 22.0998 19.9535 22.1163 19.8504 22.1163H3.53307C3.44106 22.1163 3.3809 22.1034 3.34809 22.0915C3.323 22.0832 3.31343 22.0765 3.30878 22.0729C3.30283 22.0667 3.30051 22.0683 3.28731 22.0393C3.27699 22.0151 3.2638 21.9644 3.25942 21.8863L3.30434 21.6177C3.40797 20.9971 3.69063 20.3692 4.14099 19.7704C4.81528 18.8722 5.8674 18.0502 7.1719 17.4616C8.47593 16.872 10.0277 16.5139 11.692 16.5144C13.9107 16.5133 15.9306 17.152 17.4275 18.1219ZM20.2952 32.6039C20.2949 32.8788 20.1857 33.1217 20.0058 33.3026C19.8247 33.4829 19.5819 33.5919 19.3069 33.5925H4.07666C3.80124 33.5919 3.55891 33.4829 3.37803 33.3026C3.19797 33.1217 3.08866 32.8789 3.08839 32.6039V32.435C3.08839 32.2422 3.10596 32.069 3.13699 31.9296C3.16051 31.8252 3.191 31.7399 3.22326 31.6774C3.24726 31.6299 3.2718 31.5952 3.29483 31.5689C3.33045 31.5291 3.36046 31.5074 3.40852 31.4863C3.45657 31.4655 3.52869 31.447 3.64593 31.4465H19.7417C19.8817 31.447 19.9548 31.4723 20.0032 31.4976C20.0396 31.5178 20.0667 31.5389 20.0983 31.5766C20.1437 31.6314 20.1964 31.7291 20.2344 31.8779C20.2732 32.0247 20.2957 32.2179 20.2951 32.435L20.2952 32.6039Z" fill="black"/>
</svg>
