<svg width="20" height="20" viewBox="0 0 20 20" fill="none" xmlns="http://www.w3.org/2000/svg">
<path d="M14.1667 17.7083H5.83332C2.79166 17.7083 1.04166 15.9583 1.04166 12.9167V7.08332C1.04166 4.04166 2.79166 2.29166 5.83332 2.29166H14.1667C17.2083 2.29166 18.9583 4.04166 18.9583 7.08332V12.9167C18.9583 15.9583 17.2083 17.7083 14.1667 17.7083ZM5.83332 3.54166C3.44999 3.54166 2.29166 4.69999 2.29166 7.08332V12.9167C2.29166 15.3 3.44999 16.4583 5.83332 16.4583H14.1667C16.55 16.4583 17.7083 15.3 17.7083 12.9167V7.08332C17.7083 4.69999 16.55 3.54166 14.1667 3.54166H5.83332Z" fill="black"/>
<path d="M10 13.125C8.275 13.125 6.875 11.725 6.875 10C6.875 8.275 8.275 6.875 10 6.875C11.725 6.875 13.125 8.275 13.125 10C13.125 11.725 11.725 13.125 10 13.125ZM10 8.125C8.96667 8.125 8.125 8.96667 8.125 10C8.125 11.0333 8.96667 11.875 10 11.875C11.0333 11.875 11.875 11.0333 11.875 10C11.875 8.96667 11.0333 8.125 10 8.125Z" fill="black"/>
<path d="M2.49999 8.12501H1.66666C1.32499 8.12501 1.04166 7.84168 1.04166 7.50001C1.04166 7.15834 1.32499 6.87501 1.66666 6.87501H2.49999C4.64999 6.87501 5.20832 6.31668 5.20832 4.16668V3.33334C5.20832 2.99168 5.49166 2.70834 5.83332 2.70834C6.17499 2.70834 6.45832 2.99168 6.45832 3.33334V4.16668C6.45832 7.01668 5.34999 8.12501 2.49999 8.12501Z" fill="black"/>
<path d="M18.3333 8.12501H17.5C14.65 8.12501 13.5417 7.01668 13.5417 4.16668V3.33334C13.5417 2.99168 13.825 2.70834 14.1667 2.70834C14.5083 2.70834 14.7917 2.99168 14.7917 3.33334V4.16668C14.7917 6.31668 15.35 6.87501 17.5 6.87501H18.3333C18.675 6.87501 18.9583 7.15834 18.9583 7.50001C18.9583 7.84168 18.675 8.12501 18.3333 8.12501Z" fill="black"/>
<path d="M5.83332 17.2917C5.49166 17.2917 5.20832 17.0083 5.20832 16.6667V15.8333C5.20832 13.6833 4.64999 13.125 2.49999 13.125H1.66666C1.32499 13.125 1.04166 12.8417 1.04166 12.5C1.04166 12.1583 1.32499 11.875 1.66666 11.875H2.49999C5.34999 11.875 6.45832 12.9833 6.45832 15.8333V16.6667C6.45832 17.0083 6.17499 17.2917 5.83332 17.2917Z" fill="black"/>
<path d="M14.1667 17.2917C13.825 17.2917 13.5417 17.0083 13.5417 16.6667V15.8333C13.5417 12.9833 14.65 11.875 17.5 11.875H18.3333C18.675 11.875 18.9583 12.1583 18.9583 12.5C18.9583 12.8417 18.675 13.125 18.3333 13.125H17.5C15.35 13.125 14.7917 13.6833 14.7917 15.8333V16.6667C14.7917 17.0083 14.5083 17.2917 14.1667 17.2917Z" fill="black"/>
</svg>
