<svg width="33" height="33" viewBox="0 0 33 33" fill="none" xmlns="http://www.w3.org/2000/svg">
<g clip-path="url(#clip0_93_397)">
<path d="M16.4998 13.5V19.89H25.3797C24.9898 21.945 23.8197 23.685 22.0647 24.855L27.4197 29.01C30.5397 26.1301 32.3397 21.9001 32.3397 16.8751C32.3397 15.7051 32.2347 14.58 32.0396 13.5001L16.4998 13.5Z" fill="#4285F4"/>
<path d="M7.25272 19.6405L6.04497 20.5651L1.7699 23.895C4.48489 29.2799 10.0495 33 16.4994 33C20.9543 33 24.6893 31.53 27.4193 29.0101L22.0644 24.855C20.5943 25.845 18.7193 26.4451 16.4994 26.4451C12.2095 26.4451 8.56456 23.5501 7.25946 19.6501L7.25272 19.6405Z" fill="#34A853"/>
<path d="M1.76987 9.105C0.644933 11.3249 0 13.8299 0 16.4999C0 19.1698 0.644933 21.6749 1.76987 23.8948C1.76987 23.9097 7.25997 19.6348 7.25997 19.6348C6.92997 18.6448 6.73491 17.5949 6.73491 16.4997C6.73491 15.4046 6.92997 14.3546 7.25997 13.3647L1.76987 9.105Z" fill="#FBBC05"/>
<path d="M16.4998 6.57C18.9298 6.57 21.0898 7.40997 22.8148 9.03L27.5397 4.30506C24.6747 1.6351 20.9548 0 16.4998 0C10.0498 0 4.48489 3.70499 1.7699 9.10501L7.25982 13.365C8.56474 9.46497 12.2098 6.57 16.4998 6.57Z" fill="#EA4335"/>
</g>
<defs>
<clipPath id="clip0_93_397">
<rect width="33" height="33" fill="white"/>
</clipPath>
</defs>
</svg>
