<svg width="20" height="20" viewBox="0 0 20 20" fill="none" xmlns="http://www.w3.org/2000/svg">
<path d="M12.5 18.9584H7.50001C3.82501 18.9584 2.70834 17.8417 2.70834 14.1667V5.83335C2.70834 2.15835 3.82501 1.04169 7.50001 1.04169H12.5C16.175 1.04169 17.2917 2.15835 17.2917 5.83335V14.1667C17.2917 17.8417 16.175 18.9584 12.5 18.9584ZM7.50001 2.29169C4.51668 2.29169 3.95834 2.85835 3.95834 5.83335V14.1667C3.95834 17.1417 4.51668 17.7084 7.50001 17.7084H12.5C15.4833 17.7084 16.0417 17.1417 16.0417 14.1667V5.83335C16.0417 2.85835 15.4833 2.29169 12.5 2.29169H7.50001Z" fill="black"/>
<path d="M11.6667 5.20831H8.33334C7.99168 5.20831 7.70834 4.92498 7.70834 4.58331C7.70834 4.24165 7.99168 3.95831 8.33334 3.95831H11.6667C12.0083 3.95831 12.2917 4.24165 12.2917 4.58331C12.2917 4.92498 12.0083 5.20831 11.6667 5.20831Z" fill="black"/>
<path d="M10 16.55C8.94168 16.55 8.08334 15.6917 8.08334 14.6333C8.08334 13.575 8.94168 12.7167 10 12.7167C11.0583 12.7167 11.9167 13.575 11.9167 14.6333C11.9167 15.6917 11.0583 16.55 10 16.55ZM10 13.9583C9.63334 13.9583 9.33334 14.2583 9.33334 14.625C9.33334 14.9917 9.63334 15.2917 10 15.2917C10.3667 15.2917 10.6667 14.9917 10.6667 14.625C10.6667 14.2583 10.3667 13.9583 10 13.9583Z" fill="black"/>
</svg>
