<svg width="35" height="35" viewBox="0 0 35 35" fill="none" xmlns="http://www.w3.org/2000/svg">
<path d="M17.5 33.1917C15.9105 33.1917 14.3355 32.725 13.0959 31.8062L6.82504 27.125C5.16254 25.8854 3.86462 23.2896 3.86462 21.2333V10.3833C3.86462 8.1375 5.51254 5.74583 7.62712 4.95833L14.9042 2.23125C16.348 1.69167 18.623 1.69167 20.0667 2.23125L27.3438 4.95833C29.4584 5.74583 31.1063 8.1375 31.1063 10.3833V21.2188C31.1063 23.2896 29.8084 25.8708 28.1459 27.1104L21.875 31.7917C20.6646 32.725 19.0896 33.1917 17.5 33.1917ZM15.6771 4.2875L8.40004 7.01458C7.16046 7.48125 6.06671 9.05625 6.06671 10.3979V21.2333C6.06671 22.6188 7.04379 24.5583 8.13754 25.375L14.4084 30.0562C16.0855 31.3104 18.9146 31.3104 20.6063 30.0562L26.8771 25.375C27.9855 24.5437 28.948 22.6188 28.948 21.2333V10.3833C28.948 9.05625 27.8542 7.48125 26.6146 7L19.3375 4.27292C18.3459 3.92292 16.6542 3.92292 15.6771 4.2875Z" fill="#008A1E"/>
<path d="M15.5458 20.7521C15.2687 20.7521 14.9916 20.65 14.7729 20.4313L12.425 18.0833C12.0021 17.6604 12.0021 16.9604 12.425 16.5375C12.8479 16.1146 13.5479 16.1146 13.9708 16.5375L15.5458 18.1125L21.0437 12.6146C21.4666 12.1917 22.1666 12.1917 22.5896 12.6146C23.0125 13.0375 23.0125 13.7375 22.5896 14.1604L16.3187 20.4313C16.1 20.65 15.8229 20.7521 15.5458 20.7521Z" fill="#008A1E"/>
</svg>
