<svg width="20" height="20" viewBox="0 0 20 20" fill="none" xmlns="http://www.w3.org/2000/svg">
<path d="M18.3333 8.95834V8.19167C18.3333 5.10834 17.5667 4.34167 14.4833 4.34167H9.16666V10" stroke="black" stroke-width="1.5" stroke-linecap="round" stroke-linejoin="round"/>
<path d="M9.09167 16.6667H14.4833C17.5667 16.6667 18.3333 15.9 18.3333 12.8167C17.2667 12.8167 16.4083 11.95 16.4083 10.8917" stroke="black" stroke-width="1.5" stroke-linecap="round" stroke-linejoin="round"/>
<path d="M9.16666 14.1667V16.6667H6.85833C5.625 16.6667 4.9 15.825 4.1 13.8917L3.95 13.5167C4.95833 13.1167 5.45 11.95 5.025 10.9417C4.61667 9.93335 3.45833 9.45001 2.44167 9.86668L2.3 9.50835C1.1 6.57501 1.51667 5.55001 4.45 4.34168L6.65 3.44168L9.16666 9.54168V11.6667" stroke="black" stroke-width="1.5" stroke-linecap="round" stroke-linejoin="round"/>
<path d="M6.80832 16.6667H6.66666" stroke="black" stroke-width="1.5" stroke-linecap="round" stroke-linejoin="round"/>
</svg>
