<svg width="20" height="20" viewBox="0 0 20 20" fill="none" xmlns="http://www.w3.org/2000/svg">
<path d="M17.0834 17.7083H2.91675C2.57508 17.7083 2.29175 17.9916 2.29175 18.3333C2.29175 18.6749 2.57508 18.9583 2.91675 18.9583H17.0834C17.4251 18.9583 17.7084 18.6749 17.7084 18.3333C17.7084 17.9916 17.4251 17.7083 17.0834 17.7083Z" fill="#AD0000"/>
<path d="M4.16675 12.1001C4.50841 12.1001 4.79175 11.8167 4.79175 11.4751V4.42508L15.3917 15.0251C15.5167 15.1501 15.6751 15.2084 15.8334 15.2084C15.9917 15.2084 16.1501 15.1501 16.2751 15.0251C16.5167 14.7834 16.5167 14.3834 16.2751 14.1417L5.67508 3.54175H12.7251C13.0667 3.54175 13.3501 3.25841 13.3501 2.91675C13.3501 2.57508 13.0667 2.29175 12.7251 2.29175H4.16675C4.08341 2.29175 4.00841 2.30841 3.92508 2.34175C3.77508 2.40008 3.65008 2.52508 3.59175 2.67508C3.55841 2.75841 3.54175 2.83341 3.54175 2.91675V11.4751C3.54175 11.8167 3.82508 12.1001 4.16675 12.1001Z" fill="#AD0000"/>
</svg>
