<svg width="20" height="20" viewBox="0 0 20 20" fill="none" xmlns="http://www.w3.org/2000/svg">
<path d="M3.92508 15.1583C4.00841 15.1916 4.08341 15.2083 4.16675 15.2083H12.7251C13.0667 15.2083 13.3501 14.925 13.3501 14.5833C13.3501 14.2416 13.0667 13.9583 12.7251 13.9583H5.67508L16.2751 3.35828C16.5167 3.11662 16.5167 2.71662 16.2751 2.47495C16.0334 2.23328 15.6334 2.23328 15.3917 2.47495L4.79175 13.075V6.02495C4.79175 5.68328 4.50841 5.39995 4.16675 5.39995C3.82508 5.39995 3.54175 5.68328 3.54175 6.02495V14.5833C3.54175 14.6666 3.55841 14.7416 3.59175 14.825C3.65008 14.975 3.77508 15.1 3.92508 15.1583Z" fill="#00882E"/>
<path d="M17.0834 17.7083H2.91675C2.57508 17.7083 2.29175 17.9916 2.29175 18.3333C2.29175 18.6749 2.57508 18.9583 2.91675 18.9583H17.0834C17.4251 18.9583 17.7084 18.6749 17.7084 18.3333C17.7084 17.9916 17.4251 17.7083 17.0834 17.7083Z" fill="#00882E"/>
</svg>
