<svg width="20" height="20" viewBox="0 0 20 20" fill="none" xmlns="http://www.w3.org/2000/svg">
<path d="M9.15011 5.15833L6.05845 2.06667C6.00011 2.00833 5.92511 1.95833 5.84178 1.925C5.83345 1.925 5.82511 1.925 5.81678 1.91667C5.75011 1.89167 5.68345 1.875 5.60845 1.875C5.44178 1.875 5.28345 1.94167 5.16678 2.05833L2.05845 5.15833C1.81678 5.4 1.81678 5.8 2.05845 6.04167C2.30011 6.28333 2.70011 6.28333 2.94178 6.04167L4.98345 4V17.5C4.98345 17.8417 5.26678 18.125 5.60845 18.125C5.95011 18.125 6.23345 17.8417 6.23345 17.5V4.00833L8.26678 6.04167C8.39178 6.16667 8.55011 6.225 8.70845 6.225C8.86678 6.225 9.02511 6.16667 9.15011 6.04167C9.39178 5.8 9.39178 5.40833 9.15011 5.15833Z" fill="black"/>
<path d="M17.9416 13.9583C17.7 13.7167 17.2999 13.7167 17.0583 13.9583L15.0166 16V2.5C15.0166 2.15833 14.7333 1.875 14.3916 1.875C14.05 1.875 13.7666 2.15833 13.7666 2.5V15.9917L11.7333 13.9583C11.4916 13.7167 11.0916 13.7167 10.85 13.9583C10.6083 14.2 10.6083 14.6 10.85 14.8417L13.9416 17.9333C14 17.9917 14.075 18.0417 14.1583 18.075C14.1666 18.075 14.175 18.075 14.1833 18.0833C14.25 18.1083 14.325 18.125 14.4 18.125C14.5666 18.125 14.725 18.0583 14.8416 17.9417L17.9416 14.8417C18.1833 14.5917 18.1833 14.2 17.9416 13.9583Z" fill="black"/>
</svg>
