<svg width="20" height="20" viewBox="0 0 20 20" fill="none" xmlns="http://www.w3.org/2000/svg">
<path d="M4.1665 8.33332H5.83317C7.49984 8.33332 8.33317 7.49999 8.33317 5.83332V4.16666C8.33317 2.49999 7.49984 1.66666 5.83317 1.66666H4.1665C2.49984 1.66666 1.6665 2.49999 1.6665 4.16666V5.83332C1.6665 7.49999 2.49984 8.33332 4.1665 8.33332Z" stroke="black" stroke-width="1.5" stroke-miterlimit="10" stroke-linecap="round" stroke-linejoin="round"/>
<path d="M14.1665 8.33332H15.8332C17.4998 8.33332 18.3332 7.49999 18.3332 5.83332V4.16666C18.3332 2.49999 17.4998 1.66666 15.8332 1.66666H14.1665C12.4998 1.66666 11.6665 2.49999 11.6665 4.16666V5.83332C11.6665 7.49999 12.4998 8.33332 14.1665 8.33332Z" stroke="black" stroke-width="1.5" stroke-miterlimit="10" stroke-linecap="round" stroke-linejoin="round"/>
<path d="M14.1665 18.3333H15.8332C17.4998 18.3333 18.3332 17.5 18.3332 15.8333V14.1667C18.3332 12.5 17.4998 11.6667 15.8332 11.6667H14.1665C12.4998 11.6667 11.6665 12.5 11.6665 14.1667V15.8333C11.6665 17.5 12.4998 18.3333 14.1665 18.3333Z" stroke="black" stroke-width="1.5" stroke-miterlimit="10" stroke-linecap="round" stroke-linejoin="round"/>
<path d="M4.1665 18.3333H5.83317C7.49984 18.3333 8.33317 17.5 8.33317 15.8333V14.1667C8.33317 12.5 7.49984 11.6667 5.83317 11.6667H4.1665C2.49984 11.6667 1.6665 12.5 1.6665 14.1667V15.8333C1.6665 17.5 2.49984 18.3333 4.1665 18.3333Z" stroke="black" stroke-width="1.5" stroke-miterlimit="10" stroke-linecap="round" stroke-linejoin="round"/>
</svg>
