<svg width="20" height="20" viewBox="0 0 20 20" fill="none" xmlns="http://www.w3.org/2000/svg">
<path d="M8.95832 14.05V15.7417C8.95832 17.175 7.62498 18.3333 5.98332 18.3333C4.34165 18.3333 2.99997 17.175 2.99997 15.7417V14.05C2.99997 15.4833 4.33332 16.5 5.98332 16.5C7.62498 16.5 8.95832 15.475 8.95832 14.05Z" stroke="black" stroke-width="1.5" stroke-linecap="round" stroke-linejoin="round"/>
<path d="M8.95834 11.7583C8.95834 12.175 8.84167 12.5583 8.64167 12.8917C8.15001 13.7 7.14166 14.2083 5.975 14.2083C4.80833 14.2083 3.79999 13.6917 3.30832 12.8917C3.10832 12.5583 2.9917 12.175 2.9917 11.7583C2.9917 11.0417 3.32501 10.4 3.85835 9.93333C4.40001 9.45833 5.14165 9.17502 5.96665 9.17502C6.79165 9.17502 7.53335 9.46666 8.07501 9.93333C8.62501 10.3917 8.95834 11.0417 8.95834 11.7583Z" stroke="black" stroke-width="1.5" stroke-linecap="round" stroke-linejoin="round"/>
<path d="M8.95832 11.7583V14.05C8.95832 15.4833 7.62498 16.5 5.98332 16.5C4.34165 16.5 2.99997 15.475 2.99997 14.05V11.7583C2.99997 10.325 4.33332 9.16666 5.98332 9.16666C6.80832 9.16666 7.55001 9.4583 8.09167 9.92497C8.62501 10.3916 8.95832 11.0416 8.95832 11.7583Z" stroke="black" stroke-width="1.5" stroke-linecap="round" stroke-linejoin="round"/>
<path d="M18.3333 9.14165V10.8584C18.3333 11.3167 17.9667 11.6917 17.5 11.7083H15.8667C14.9667 11.7083 14.1417 11.05 14.0667 10.15C14.0167 9.625 14.2167 9.13333 14.5667 8.79167C14.875 8.475 15.3 8.29169 15.7667 8.29169H17.5C17.9667 8.30835 18.3333 8.68332 18.3333 9.14165Z" stroke="black" stroke-width="1.5" stroke-linecap="round" stroke-linejoin="round"/>
<path d="M13.3333 2.91666C13.55 2.91666 13.7583 2.92498 13.9583 2.95831C16.1083 3.20831 17.5 4.79999 17.5 7.08332V8.29167H15.7667C15.3 8.29167 14.875 8.47498 14.5667 8.79165C14.2167 9.13331 14.0167 9.62498 14.0667 10.15C14.1417 11.05 14.9666 11.7083 15.8666 11.7083H17.5V12.9167C17.5 15.4167 15.8333 17.0833 13.3333 17.0833H11.25" stroke="black" stroke-width="1.5" stroke-linecap="round" stroke-linejoin="round"/>
<path d="M1.66666 8.74999V7.08332C1.66666 4.81666 3.03333 3.23332 5.15833 2.96665C5.37499 2.93332 5.59999 2.91666 5.83332 2.91666H9.99999" stroke="black" stroke-width="1.5" stroke-linecap="round" stroke-linejoin="round"/>
</svg>
