<svg width="45" height="45" viewBox="0 0 45 45" fill="none" xmlns="http://www.w3.org/2000/svg">
<path d="M3.75 41.25H41.25" stroke="black" stroke-width="1.5" stroke-miterlimit="10" stroke-linecap="round" stroke-linejoin="round"/>
<path d="M5.53125 41.25L5.625 18.6937C5.625 17.5499 6.16875 16.4625 7.06875 15.75L20.1938 5.53127C21.5438 4.48127 23.4375 4.48127 24.8062 5.53127L37.9313 15.7313C38.85 16.4438 39.375 17.5312 39.375 18.6937V41.25" stroke="black" stroke-width="1.5" stroke-miterlimit="10" stroke-linejoin="round"/>
<path d="M24.375 31.875H20.625C19.0688 31.875 17.8125 33.1313 17.8125 34.6875V41.25H27.1875V34.6875C27.1875 33.1313 25.9312 31.875 24.375 31.875Z" stroke="black" stroke-width="1.5" stroke-miterlimit="10" stroke-linejoin="round"/>
<path d="M17.8125 25.7812H14.0625C13.0312 25.7812 12.1875 24.9375 12.1875 23.9062V21.0938C12.1875 20.0625 13.0312 19.2188 14.0625 19.2188H17.8125C18.8438 19.2188 19.6875 20.0625 19.6875 21.0938V23.9062C19.6875 24.9375 18.8438 25.7812 17.8125 25.7812Z" stroke="black" stroke-width="1.5" stroke-miterlimit="10" stroke-linejoin="round"/>
<path d="M30.9375 25.7812H27.1875C26.1562 25.7812 25.3125 24.9375 25.3125 23.9062V21.0938C25.3125 20.0625 26.1562 19.2188 27.1875 19.2188H30.9375C31.9688 19.2188 32.8125 20.0625 32.8125 21.0938V23.9062C32.8125 24.9375 31.9688 25.7812 30.9375 25.7812Z" stroke="black" stroke-width="1.5" stroke-miterlimit="10" stroke-linejoin="round"/>
<path d="M35.6251 13.125L35.5689 7.5H27.3188" stroke="black" stroke-width="1.5" stroke-miterlimit="10" stroke-linecap="round" stroke-linejoin="round"/>
</svg>
